<svg xmlns="http://www.w3.org/2000/svg" viewBox="0 0 22 27"><path d="M10.993 26.286a3.016 3.016 0 0 1-3.013-3.013h6.026a3.016 3.016 0 0 1-3.013 3.013zm9.03-5.661H1.95a1.204 1.204 0 0 1 0-2.408H1.9a1.054 1.054 0 0 0-.586.173 2.706 2.706 0 0 0 1.242-2.28v-5.36A8.064 8.064 0 0 1 4.45 5.579 8.517 8.517 0 0 1 9.184 2.75v-.194a1.806 1.806 0 1 1 3.612 0v.194a8.518 8.518 0 0 1 4.736 2.834 8.064 8.064 0 0 1 1.892 5.166v5.356a2.7 2.7 0 0 0 1.231 2.273 1.067 1.067 0 0 0-.591-.166h-.035a1.204 1.204 0 0 1-.006 2.408z" fill="none" stroke="currentColor" stroke-miterlimit="10" stroke-width="1.5"/></svg>