<svg viewBox="0 0 33 29" fill="none" xmlns="http://www.w3.org/2000/svg"><path d="M4.956 29c-1.1 0-2.101-.499-2.801-1.296-.8-.998-1.1-2.294-.7-3.49l.3-.898c.2-.599.4-1.297.6-1.895a13.25 13.25 0 0 1-1.901-3.989c-1.1-4.188-.2-8.177 2.7-11.568C5.257 3.371 8.158 1.576 11.559.678c4.502-1.196 8.903-.797 13.005 1.097 3.2 1.496 5.602 3.69 7.102 6.682 2.401 4.687 1.5 10.47-2.2 14.26-4.773 4.758-12.433 6.095-18.807 4.189-.3.1-.5.299-.8.399-1.17.777-2.627 1.367-4.002 1.595-.5.1-.7.1-.9.1zM16.56 3.072c-1.4 0-2.801.2-4.302.598-2.9.698-5.202 2.094-6.902 4.189-2.201 2.692-2.901 5.584-2.101 8.875.3 1.197.9 2.393 1.8 3.49l.5.599-.2.797c-.386 1.157-.713 2.333-1.1 3.49 0 .588.126.898.8.898 1.61-.2 3.072-1.181 4.502-1.895.5-.199 1.1-.299 1.6-.1 5.382 1.789 12.088.817 16.107-3.39 2.9-2.892 3.501-7.18 1.7-10.77-1.2-2.294-3.1-4.089-5.702-5.285-2.2-.998-4.401-1.496-6.702-1.496z" fill="currentColor"/></svg>