<svg viewBox="0 0 28 26" fill="none" xmlns="http://www.w3.org/2000/svg">
<path fill-rule="evenodd" clip-rule="evenodd" d="M18.3278 19.5015C17.4345 21.0425 15.7761 22.0001 13.9998 22.0001C12.2235 22.0001 10.5651 21.0425 9.6718 19.5015C9.39447 19.0235 9.55747 18.4115 10.0361 18.1348C10.5128 17.8588 11.1251 18.0215 11.4025 18.4985C11.9391 19.4248 12.9345 20.0001 13.9998 20.0001C15.0651 20.0001 16.0605 19.4248 16.5975 18.4988C16.8748 18.0211 17.4871 17.8578 17.9638 18.1351C18.4421 18.4118 18.6051 19.0235 18.3278 19.5015Z" fill="currentColor"/>
<path fill-rule="evenodd" clip-rule="evenodd" d="M12 16C12 14.897 12.8973 14 14 14C15.1027 14 16 14.897 16 16C16 17.103 15.1027 18 14 18C12.8973 18 12 17.103 12 16Z" fill="currentColor"/>
<path fill-rule="evenodd" clip-rule="evenodd" d="M10 13.5C9.17167 13.5 8.5 12.8283 8.5 12C8.5 11.1717 9.17167 10.5 10 10.5C10.8283 10.5 11.5 11.1717 11.5 12C11.5 12.8283 10.8283 13.5 10 13.5Z" fill="currentColor"/>
<path fill-rule="evenodd" clip-rule="evenodd" d="M19.5 12C19.5 12.8283 18.8283 13.5 18 13.5C17.1717 13.5 16.5 12.8283 16.5 12C16.5 11.1717 17.1717 10.5 18 10.5C18.8283 10.5 19.5 11.1717 19.5 12Z" fill="currentColor"/>
<path fill-rule="evenodd" clip-rule="evenodd" d="M20 0C22.5597 0 24.6757 1.933 24.9657 4.416C28.1 5.75167 29.0244 9.784 26.702 12.3367C27.7684 15.2413 25.8777 18.4253 22.7887 18.9203C21.906 22.9623 18.3034 26 14 26C9.69203 26 6.08603 22.9563 5.20803 18.9077C2.0727 18.3827 0.243367 15.2093 1.29803 12.3363C-1.0233 9.785 -0.1003 5.752 3.03437 4.416C3.32437 1.933 5.44037 0 8.00003 0C9.66603 0 11.2034 0.844667 12.124 2.19967C13.3747 1.93333 14.626 1.93333 15.8764 2.19967C16.7967 0.844667 18.334 0 20 0ZM7.00003 17C7.00003 20.8123 10.1067 24 14 24C17.903 24 21 20.8017 21 17V11C21 7.185 17.887 4 14 4C10.1424 4 7.00003 7.15567 7.00003 11V17Z" fill="currentColor"/>
</svg>
