<svg viewBox="0 0 40 53" fill="currentColor" xmlns="http://www.w3.org/2000/svg">
    <path fill-rule="evenodd" clip-rule="evenodd" d="M20.027 24.777a2.331 2.331 0 00-2.329 2.329 2.331 2.331 0 002.33 2.328 2.33 2.33 0 002.328-2.328 2.331 2.331 0 00-2.329-2.329zm0 5.994a3.67 3.67 0 01-3.666-3.665 3.67 3.67 0 013.666-3.667 3.67 3.67 0 013.666 3.667 3.67 3.67 0 01-3.666 3.665z" fill="currentColor"/>
    <path d="M20.027 24.527a2.581 2.581 0 00-2.579 2.579h.5c0-1.146.933-2.079 2.08-2.079v-.5zm-2.579 2.579a2.581 2.581 0 002.58 2.578v-.5a2.081 2.081 0 01-2.08-2.078h-.5zm2.58 2.578a2.58 2.58 0 002.578-2.578h-.5a2.08 2.08 0 01-2.079 2.078v.5zm2.578-2.578a2.581 2.581 0 00-2.579-2.579v.5c1.146 0 2.079.933 2.079 2.079h.5zm-2.579 3.415a3.42 3.42 0 01-3.416-3.415h-.5a3.92 3.92 0 003.916 3.915v-.5zm-3.416-3.415a3.42 3.42 0 013.416-3.417v-.5a3.92 3.92 0 00-3.916 3.917h.5zm3.416-3.417a3.42 3.42 0 013.416 3.417h.5a3.92 3.92 0 00-3.916-3.917v.5zm3.416 3.417a3.42 3.42 0 01-3.416 3.415v.5a3.92 3.92 0 003.916-3.915h-.5z" fill="currentColor"/>
    <path fill-rule="evenodd" clip-rule="evenodd" d="M20.097 33.53c-2.78 0-5.2-1.346-5.885-3.273a.669.669 0 111.26-.448c.491 1.381 2.437 2.384 4.625 2.384 2.267 0 4.276-1.087 4.672-2.528a.669.669 0 111.29.355c-.56 2.034-3.067 3.51-5.962 3.51z" fill="currentColor"/>
    <path d="M20.097 33.53c-2.78 0-5.2-1.346-5.885-3.273a.669.669 0 111.26-.448c.491 1.381 2.437 2.384 4.625 2.384 2.267 0 4.276-1.087 4.672-2.528a.669.669 0 111.29.355c-.56 2.034-3.067 3.51-5.962 3.51" stroke="#fff" stroke-width=".5"/>
    <path fill-rule="evenodd" clip-rule="evenodd" d="M16.892 23.227a.667.667 0 01-.482-.207 1.852 1.852 0 00-1.349-.576c-.514 0-.993.205-1.35.577a.668.668 0 11-.965-.926 3.18 3.18 0 012.315-.989c.882 0 1.704.352 2.315.99a.668.668 0 01-.484 1.13z" fill="currentColor"/>
    <path d="M16.892 23.227a.667.667 0 01-.482-.207 1.852 1.852 0 00-1.349-.576c-.514 0-.993.205-1.35.577a.668.668 0 11-.965-.926 3.18 3.18 0 012.315-.989c.882 0 1.704.352 2.315.99a.668.668 0 01-.484 1.13" stroke="#fff" stroke-width=".5"/>
    <path fill-rule="evenodd" clip-rule="evenodd" d="M23.207 23.227a.67.67 0 01-.483-1.131 3.177 3.177 0 012.315-.99c.883 0 1.705.352 2.315.99a.669.669 0 01-.967.924 1.847 1.847 0 00-1.348-.576 1.85 1.85 0 00-1.349.576.668.668 0 01-.483.207z" fill="currentColor"/>
    <path d="M23.207 23.227a.67.67 0 01-.483-1.131 3.177 3.177 0 012.315-.99c.883 0 1.705.352 2.315.99a.669.669 0 01-.967.924 1.847 1.847 0 00-1.348-.576 1.85 1.85 0 00-1.349.576.668.668 0 01-.483.207" stroke="#fff" stroke-width=".5"/>
    <path fill-rule="evenodd" clip-rule="evenodd" d="M19.84 37.008c-5.486 0-10.176-4.128-10.93-9.503a2.307 2.307 0 01-1.912-2.27V22.47a.669.669 0 011.338 0v2.766a.967.967 0 001.088.956.671.671 0 01.752.607c.421 4.975 4.667 8.872 9.664 8.872 4.998 0 9.243-3.897 9.665-8.872a.67.67 0 01.752-.607.967.967 0 001.088-.956V22.47a.669.669 0 011.338 0v2.766a2.307 2.307 0 01-1.912 2.27c-.754 5.374-5.444 9.502-10.93 9.502z" fill="currentColor"/>
    <path d="M19.84 37.008c-5.486 0-10.176-4.128-10.93-9.503a2.307 2.307 0 01-1.912-2.27V22.47a.669.669 0 011.338 0v2.766a.967.967 0 001.088.956.671.671 0 01.752.607c.421 4.975 4.667 8.872 9.664 8.872 4.998 0 9.243-3.897 9.665-8.872a.67.67 0 01.752-.607.967.967 0 001.088-.956V22.47a.669.669 0 011.338 0v2.766a2.307 2.307 0 01-1.912 2.27c-.754 5.374-5.444 9.502-10.93 9.502" stroke="#fff" stroke-width=".5"/><mask id="a" maskUnits="userSpaceOnUse" x="0" y="0" width="40" height="52">
    <path fill-rule="evenodd" clip-rule="evenodd" d="M.59.388h38.5v50.62H.59V.389z" fill="currentColor"/></mask><g mask="url(#a)">
    <path fill-rule="evenodd" clip-rule="evenodd" d="M28.158 16.696a.668.668 0 01.638.87 3.358 3.358 0 003.197 4.369 3.358 3.358 0 003.354-3.354 3.349 3.349 0 00-2.521-3.244.667.667 0 01-.33-1.097 4.512 4.512 0 001.175-3.034 4.532 4.532 0 00-5.05-4.495.667.667 0 01-.731-.54 4.526 4.526 0 00-4.446-3.683c-1.066 0-2.104.38-2.92 1.072a.668.668 0 01-.864 0 4.527 4.527 0 00-2.92-1.072.662.662 0 01-.251-.049.665.665 0 01-.252.05 4.527 4.527 0 00-4.446 3.682.668.668 0 01-.732.54 4.533 4.533 0 00-5.05 4.495c.001 1.12.419 2.198 1.176 3.034a.668.668 0 01-.33 1.097 3.349 3.349 0 00-2.521 3.244 3.358 3.358 0 003.354 3.354 3.358 3.358 0 003.197-4.368.669.669 0 01.922-.807 4.123 4.123 0 001.769.398 4.132 4.132 0 003.034-1.315.668.668 0 01.738-.161c.564.229 1.156.345 1.759.345h1.467c.602 0 1.194-.116 1.759-.346a.669.669 0 01.738.162 4.13 4.13 0 003.034 1.315c.612 0 1.207-.134 1.768-.398a.669.669 0 01.285-.064zm3.835 6.577a4.697 4.697 0 01-4.686-4.911 5.423 5.423 0 01-1.202.134 5.443 5.443 0 01-3.688-1.422 5.97 5.97 0 01-1.843.29h-1.467a5.954 5.954 0 01-1.843-.29 5.442 5.442 0 01-3.688 1.422c-.408 0-.809-.045-1.201-.134a4.697 4.697 0 01-4.686 4.91 4.697 4.697 0 01-4.693-4.69 4.685 4.685 0 012.614-4.204 5.834 5.834 0 01-.937-3.172 5.872 5.872 0 015.865-5.864h.08a5.867 5.867 0 015.62-4.191c.088 0 .173.017.25.048a.661.661 0 01.252-.048c1.2 0 2.372.371 3.352 1.055a5.866 5.866 0 013.352-1.055c2.614 0 4.89 1.73 5.62 4.191h.08a5.872 5.872 0 015.865 5.864c0 1.133-.328 2.23-.938 3.173a4.685 4.685 0 012.614 4.202 4.697 4.697 0 01-4.692 4.692z" fill="currentColor"/>
    <path d="M28.598 16.861l-.164.189.164-.189zm.198.706l.238.075-.238-.075zm4.03-2.23l.062-.242-.062.242zm-.475-.455l.24-.072-.24.072zm.145-.642l.185.168-.185-.168zm-3.875-7.53l-.028-.248.028.249zm-.731-.54l.245-.046-.245.046zm-7.366-2.61l-.162-.191.162.19zm-.864 0l-.162.19.162-.19zm-3.171-1.121l.094-.231-.094-.039-.095.039.095.231zM11.79 6.171l.246.046-.246-.046zm-.732.54l.03-.249h-.002l-.027.249zM7.185 14.24L7 14.408l.185-.168zm.145.642l-.24-.072.24.072zm-.475.455l-.061-.243.061.243zm4.03 2.23l.239-.076-.239.076zm.198-.706l.164.189-.164-.189zm.724-.101l-.106.226.106-.226zm4.803-.917l.182.171-.182-.171zm.738-.161l-.095.231h.001l.094-.231zm4.985 0l.094.231-.094-.232zm.738.16l-.182.172.182-.171zm4.802.918l-.106-.226.106.226zm-.566 1.602l.25.012.016-.329-.322.073.056.244zm-4.89-1.288l.168-.186-.107-.097-.138.045.077.238zm-5.153 0l.077-.238-.138-.045-.107.097.168.185zm-4.89 1.288l.056-.244-.322-.072.017.329.25-.013zM5.61 14.378l.11.225.252-.125-.152-.236-.21.136zm5.007-9.036l-.003.25.19.003.053-.182-.24-.07zM16.49 1.2l-.095.232.095.039.094-.04-.094-.23zm3.603 1.007l-.143.205.143.1.143-.1-.143-.205zm8.972 3.136l-.24.071.054.182.189-.003-.003-.25zm5.007 9.037l-.21-.136-.152.236.252.124.11-.224zm-5.913 2.567c.1 0 .198.036.276.104l.328-.377a.918.918 0 00-.604-.227v.5zm.276.104c.125.11.173.282.123.441l.477.15a.919.919 0 00-.271-.968l-.33.377zm.123.441a3.61 3.61 0 00-.168 1.09h.5c0-.319.049-.635.145-.939l-.477-.15zm-.168 1.09a3.608 3.608 0 003.604 3.604v-.5a3.108 3.108 0 01-3.104-3.104h-.5zm3.604 3.604a3.608 3.608 0 003.604-3.604h-.5a3.108 3.108 0 01-3.104 3.104v.5zm3.604-3.604a3.599 3.599 0 00-2.71-3.486l-.123.484a3.099 3.099 0 012.333 3.002h.5zm-2.71-3.487a.418.418 0 01-.296-.284l-.48.143c.093.309.34.546.653.626l.123-.485zm-.296-.284a.418.418 0 01.09-.402l-.37-.336a.918.918 0 00-.2.882l.48-.144zm.09-.402a4.762 4.762 0 001.24-3.202h-.5a4.263 4.263 0 01-1.11 2.866l.37.336zm1.24-3.202a4.782 4.782 0 00-4.778-4.777v.5a4.282 4.282 0 014.278 4.277h.5zM29.143 6.43c-.168 0-.349.011-.55.033l.055.497c.187-.02.349-.03.495-.03v-.5zm-.55.033a.417.417 0 01-.458-.338l-.491.093a.917.917 0 001.005.742l-.056-.497zm-.458-.338a4.776 4.776 0 00-4.69-3.886v.5a4.276 4.276 0 014.199 3.479l.491-.093zm-4.69-3.886c-1.127 0-2.22.401-3.083 1.13l.323.382a4.278 4.278 0 012.76-1.012v-.5zm-3.083 1.13a.418.418 0 01-.54 0l-.323.382c.342.29.844.29 1.186 0l-.323-.381zm-.54 0a4.776 4.776 0 00-3.082-1.13v.5c1.008 0 1.987.36 2.758 1.012l.323-.382zm-3.082-1.13a.412.412 0 01-.157-.03l-.19.462a.911.911 0 00.347.068v-.5zm-.346-.03a.415.415 0 01-.157.03v.5a.915.915 0 00.346-.067l-.189-.463zm-.157.03a4.777 4.777 0 00-4.691 3.886l.49.093a4.277 4.277 0 014.201-3.479v-.5zm-4.691 3.886a.418.418 0 01-.458.338l-.057.497a.918.918 0 001.006-.742l-.492-.093zm-.459.338c-.2-.022-.38-.033-.549-.033v.5c.147 0 .308.01.494.03l.055-.497zm-.549-.033a4.783 4.783 0 00-4.778 4.777h.5a4.282 4.282 0 014.278-4.277v-.5zM5.76 11.206c0 1.182.441 2.32 1.24 3.202l.37-.336a4.264 4.264 0 01-1.11-2.866h-.5zM7 14.408a.418.418 0 01.09.402l.48.143a.919.919 0 00-.2-.881l-.37.336zm.09.402a.418.418 0 01-.296.284l.123.485a.917.917 0 00.652-.626l-.479-.143zm-.297.284a3.599 3.599 0 00-2.71 3.487h.5a3.1 3.1 0 012.334-3.002l-.124-.485zm-2.71 3.487a3.608 3.608 0 003.605 3.604v-.5a3.108 3.108 0 01-3.104-3.104h-.5zm3.605 3.604a3.608 3.608 0 003.604-3.604h-.5a3.108 3.108 0 01-3.104 3.104v.5zm3.604-3.604c0-.37-.057-.736-.168-1.09l-.477.15c.096.306.145.622.145.94h.5zm-.168-1.09a.419.419 0 01.123-.441l-.329-.377a.919.919 0 00-.271.97l.477-.152zm.123-.441a.42.42 0 01.454-.064l.213-.452a.92.92 0 00-.996.14l.33.376zm.454-.064c.594.28 1.225.422 1.875.422v-.5a3.874 3.874 0 01-1.662-.374l-.213.452zm1.875.422c1.226 0 2.37-.496 3.216-1.394l-.364-.343a3.882 3.882 0 01-2.852 1.237v.5zm3.216-1.394a.418.418 0 01.461-.101l.19-.463a.918.918 0 00-1.015.221l.364.343zm.462-.1a4.901 4.901 0 001.853.363v-.5a4.4 4.4 0 01-1.665-.327l-.188.463zm1.853.363h1.467v-.5h-1.467v.5zm1.467 0c.635 0 1.258-.123 1.853-.364l-.188-.463a4.408 4.408 0 01-1.665.327v.5zm1.853-.364a.42.42 0 01.462.1l.364-.342a.92.92 0 00-1.014-.221l.188.463zm.462.1a4.379 4.379 0 003.216 1.395v-.5c-1.088 0-2.1-.438-2.852-1.237l-.364.343zm3.216 1.395c.65 0 1.28-.142 1.875-.422l-.213-.452a3.872 3.872 0 01-1.662.374v.5zm1.875-.422a.418.418 0 01.178-.04v-.5a.918.918 0 00-.391.088l.213.452zm4.013 6.037a4.447 4.447 0 01-4.442-4.442h-.5a4.947 4.947 0 004.942 4.942v-.5zm-4.442-4.442c0-.069.002-.138.005-.207l-.499-.025a4.636 4.636 0 00-.006.232h.5zm-.3-.463a5.176 5.176 0 01-1.146.128v.5a5.68 5.68 0 001.257-.14l-.11-.488zm-1.146.128a5.193 5.193 0 01-3.52-1.358l-.336.37a5.693 5.693 0 003.856 1.488v-.5zm-3.765-1.41a5.718 5.718 0 01-1.766.279v.5c.654 0 1.298-.102 1.92-.304l-.154-.475zm-1.766.279h-1.467v.5h1.467v-.5zm-1.467 0a5.702 5.702 0 01-1.766-.28l-.154.476a6.204 6.204 0 001.92.304v-.5zm-2.011-.227a5.192 5.192 0 01-3.52 1.358v.5a5.692 5.692 0 003.856-1.487l-.336-.37zm-3.52 1.358c-.39 0-.772-.043-1.146-.128l-.11.488c.41.093.83.14 1.256.14v-.5zm-1.451.129c.003.067.005.137.005.206h.5c0-.075-.002-.153-.006-.231l-.5.025zm.005.206a4.447 4.447 0 01-4.442 4.442v.5a4.947 4.947 0 004.942-4.942h-.5zm-4.442 4.442a4.447 4.447 0 01-4.442-4.442h-.5a4.947 4.947 0 004.942 4.942v-.5zm-4.442-4.442c0-1.714.982-3.243 2.474-3.978l-.22-.449a4.935 4.935 0 00-2.754 4.427h.5zm2.574-4.338a5.584 5.584 0 01-.897-3.037h-.5c0 1.181.342 2.326.977 3.308l.42-.271zm-.897-3.037a5.622 5.622 0 015.615-5.614v-.5a6.122 6.122 0 00-6.115 6.114h.5zm5.615-5.614h.076l.007-.5h-.083v.5zm.32-.179a5.618 5.618 0 015.38-4.012V.9a6.117 6.117 0 00-5.86 4.37l.48.142zm5.38-4.012c.055 0 .108.01.156.03l.189-.463a.915.915 0 00-.346-.067v.5zm.345.03c.048-.02.1-.03.157-.03V.9a.911.911 0 00-.346.067l.19.463zm.157-.03c1.149 0 2.27.355 3.209 1.01l.286-.41A6.115 6.115 0 0016.74.9v.5zm3.495 1.01a5.616 5.616 0 013.21-1.01V.9A6.116 6.116 0 0019.948 2l.286.41zm3.21-1.01a5.616 5.616 0 015.379 4.012l.48-.142a6.116 6.116 0 00-5.86-4.37v.5zm5.622 4.191h.076v-.5h-.083l.007.5zm.076 0a5.622 5.622 0 015.616 5.614h.5a6.122 6.122 0 00-6.116-6.114v.5zm5.616 5.614a5.584 5.584 0 01-.898 3.037l.42.271a6.084 6.084 0 00.978-3.308h-.5zm-.798 3.397a4.435 4.435 0 012.474 3.978h.5a4.935 4.935 0 00-2.753-4.427l-.221.449zm2.474 3.978a4.447 4.447 0 01-4.442 4.442v.5a4.947 4.947 0 004.942-4.942h-.5z" fill="currentColor"/>
    <path fill-rule="evenodd" clip-rule="evenodd" d="M22.575 50.265a3.568 3.568 0 01-2.735-1.289 3.563 3.563 0 01-3.343 1.236 3.556 3.556 0 01-2.718-2.304 3.557 3.557 0 01-3.564.017A3.557 3.557 0 018.45 44.83a3.558 3.558 0 01-3.355-1.202 3.557 3.557 0 01-.601-3.512 3.557 3.557 0 01-2.742-2.278 3.555 3.555 0 01.637-3.506A3.556 3.556 0 01.59 31.255a3.546 3.546 0 013.542-3.543h5.586a.669.669 0 010 1.338H4.132a2.207 2.207 0 00-2.204 2.205c0 1.089.813 2.026 1.893 2.178a.668.668 0 01.22 1.253 2.212 2.212 0 00-1.033 2.694 2.21 2.21 0 002.524 1.402.668.668 0 01.636 1.101 2.212 2.212 0 00-.05 2.886 2.212 2.212 0 002.851.452.669.669 0 01.974.818 2.212 2.212 0 00.941 2.728 2.21 2.21 0 002.833-.55.67.67 0 011.195.435 2.211 2.211 0 001.817 2.243 2.21 2.21 0 002.476-1.486.668.668 0 011.271 0 2.208 2.208 0 002.474 1.486 2.21 2.21 0 001.818-2.243.67.67 0 011.195-.435 2.212 2.212 0 002.833.55 2.211 2.211 0 00.941-2.728.669.669 0 01.974-.818c.925.576 2.15.382 2.85-.452a2.21 2.21 0 00-.048-2.886.67.67 0 01.635-1.101 2.212 2.212 0 002.525-1.4 2.21 2.21 0 00-1.035-2.695.668.668 0 01.22-1.253 2.211 2.211 0 001.894-2.18 2.207 2.207 0 00-2.204-2.204h-5.41a.669.669 0 110-1.338h5.41a3.546 3.546 0 013.542 3.543 3.556 3.556 0 01-1.797 3.077 3.554 3.554 0 01.637 3.507 3.558 3.558 0 01-2.742 2.277 3.556 3.556 0 01-.602 3.513 3.562 3.562 0 01-3.354 1.202 3.555 3.555 0 01-1.767 3.095 3.553 3.553 0 01-3.564-.018 3.556 3.556 0 01-2.719 2.304 3.476 3.476 0 01-.607.053z" fill="currentColor"/>
    <path d="M22.575 50.265a3.568 3.568 0 01-2.735-1.289 3.563 3.563 0 01-3.343 1.236 3.556 3.556 0 01-2.718-2.304 3.557 3.557 0 01-3.564.017A3.557 3.557 0 018.45 44.83a3.558 3.558 0 01-3.355-1.202 3.557 3.557 0 01-.601-3.512 3.557 3.557 0 01-2.742-2.278 3.555 3.555 0 01.637-3.506A3.556 3.556 0 01.59 31.255a3.546 3.546 0 013.542-3.543h5.586a.669.669 0 010 1.338H4.132a2.207 2.207 0 00-2.204 2.205c0 1.089.813 2.026 1.893 2.178a.668.668 0 01.22 1.253 2.212 2.212 0 00-1.033 2.694 2.21 2.21 0 002.524 1.402.668.668 0 01.636 1.101 2.212 2.212 0 00-.05 2.886 2.212 2.212 0 002.851.452.669.669 0 01.974.818 2.212 2.212 0 00.941 2.728 2.21 2.21 0 002.833-.55.67.67 0 011.195.435 2.211 2.211 0 001.817 2.243 2.21 2.21 0 002.476-1.486.668.668 0 011.271 0 2.208 2.208 0 002.474 1.486 2.21 2.21 0 001.818-2.243.67.67 0 011.195-.435 2.212 2.212 0 002.833.55 2.211 2.211 0 00.941-2.728.669.669 0 01.974-.818c.925.576 2.15.382 2.85-.452a2.21 2.21 0 00-.048-2.886.67.67 0 01.635-1.101 2.212 2.212 0 002.525-1.4 2.21 2.21 0 00-1.035-2.695.668.668 0 01.22-1.253 2.211 2.211 0 001.894-2.18 2.207 2.207 0 00-2.204-2.204h-5.41a.669.669 0 110-1.338h5.41a3.546 3.546 0 013.542 3.543 3.556 3.556 0 01-1.797 3.077 3.554 3.554 0 01.637 3.507 3.558 3.558 0 01-2.742 2.277 3.556 3.556 0 01-.602 3.513 3.562 3.562 0 01-3.354 1.202 3.555 3.555 0 01-1.767 3.095 3.553 3.553 0 01-3.564-.018 3.556 3.556 0 01-2.719 2.304 3.476 3.476 0 01-.607.053" stroke="#fff" stroke-width=".5"/></g>
</svg>
