<svg viewBox="0 0 28 32" fill="none" xmlns="http://www.w3.org/2000/svg">
<path fill-rule="evenodd" clip-rule="evenodd" d="M26.8449 13.1865C27.1218 12.4499 27.0223 11.6233 26.5786 10.975L25.4927 9.38804C25.3944 9.24454 25.3315 9.07714 25.3107 8.90389L25.0803 6.98961C24.9861 6.20769 24.517 5.52234 23.8257 5.15632L22.1329 4.26016C21.9798 4.17911 21.8468 4.06033 21.7486 3.91677L20.6627 2.32985C20.2191 1.68159 19.4881 1.29456 18.7071 1.29456H16.7954C16.6225 1.29456 16.4502 1.25169 16.2971 1.17064L14.6042 0.274477C13.9128 -0.0914922 13.0872 -0.0914922 12.3956 0.274477L10.7028 1.17059C10.5496 1.25163 10.3773 1.29451 10.2044 1.29451H8.29276C7.51182 1.29451 6.78076 1.68159 6.33721 2.32974L5.25114 3.91672C5.15295 4.06022 5.02007 4.179 4.8669 4.26005L3.17414 5.15621C2.48277 5.52223 2.01374 6.20763 1.91951 6.98955L1.68904 8.90389C1.66833 9.07698 1.60533 9.24438 1.50703 9.38798L0.421175 10.975C-0.0225358 11.6232 -0.12197 12.4499 0.154916 13.1865L0.83279 14.9895C0.894055 15.1526 0.915524 15.3304 0.894651 15.5035L0.664229 17.4178C0.570109 18.1997 0.86288 18.9784 1.44745 19.5008L2.87839 20.7794C3.00786 20.8952 3.10865 21.0425 3.17002 21.2056L3.8479 23.0086C4.0311 23.4959 4.36421 23.9017 4.7878 24.1756C4.66343 23.5827 4.5975 22.9681 4.5975 22.3384V15.5074C4.5975 13.7075 6.04916 12.2432 7.83354 12.2432C8.87044 12.2432 9.86711 12.5608 10.7158 13.1617L11.3665 13.6225C12.6425 14.526 14.3572 14.526 15.6332 13.6225L16.2839 13.1617C17.1327 12.5608 18.1293 12.2432 19.1663 12.2432C20.9507 12.2432 22.4023 13.7075 22.4023 15.5074V22.3384C22.4023 22.9681 22.3364 23.5827 22.212 24.1756C22.6356 23.9017 22.9687 23.4959 23.1519 23.0086L23.8298 21.2056C23.8911 21.0425 23.9919 20.8952 24.1214 20.7794L25.5524 19.5007C26.1369 18.9784 26.4297 18.1997 26.3356 17.4177L26.1052 15.5035C26.0844 15.3303 26.1058 15.1525 26.167 14.9895L26.8449 13.1865Z" fill="currentColor"/>
<rect x="4" y="9" width="19" height="22" rx="9.5" stroke="currentColor" stroke-width="2"/>
<path fill-rule="evenodd" clip-rule="evenodd" d="M19.7745 17.1042C19.3466 16.359 18.5509 15.896 17.6979 15.896C16.8446 15.896 16.0487 16.3592 15.621 17.1048C15.4406 17.419 15.5471 17.8213 15.8586 18.0031C15.9614 18.0632 16.0737 18.0916 16.1845 18.0916C16.4095 18.0916 16.6285 17.9739 16.7493 17.7633C16.9447 17.4225 17.3082 17.2108 17.6978 17.2108C18.0874 17.2108 18.4507 17.4224 18.6464 17.763C18.8267 18.0772 19.2253 18.1846 19.537 18.0026C19.8486 17.8206 19.9548 17.4183 19.7745 17.1042Z" fill="currentColor"/>
<path fill-rule="evenodd" clip-rule="evenodd" d="M11.379 17.1042C10.9512 16.359 10.1554 15.896 9.30238 15.896C8.44911 15.896 7.65321 16.3592 7.22549 17.1048C7.04511 17.419 7.1516 17.8213 7.46313 18.0031C7.56592 18.0632 7.6782 18.0916 7.78897 18.0916C8.01402 18.0916 8.23301 17.9739 8.35375 17.7633C8.5492 17.4225 8.91267 17.2108 9.30232 17.2108C9.69187 17.2108 10.0552 17.4224 10.2508 17.763C10.4312 18.0772 10.8298 18.1846 11.1415 18.0026C11.4531 17.8206 11.5594 17.4183 11.379 17.1042Z" fill="currentColor"/>
<path fill-rule="evenodd" clip-rule="evenodd" d="M18.546 21.0078C18.0061 21.0078 17.5683 21.4494 17.5683 21.994C17.5683 24.2182 15.7744 26.0277 13.5693 26.0277H13.4305C11.2254 26.0277 9.43146 24.2182 9.43146 21.994C9.43146 21.4494 8.99371 21.0078 8.45377 21.0078C7.91382 21.0078 7.47607 21.4494 7.47607 21.994C7.47607 25.3058 10.1472 28.0002 13.4306 28.0002H13.5693C16.8527 28.0002 19.5238 25.3058 19.5238 21.994C19.5238 21.4494 19.086 21.0078 18.546 21.0078Z" fill="currentColor"/>
<path fill-rule="evenodd" clip-rule="evenodd" d="M13.5 23.5339C14.703 23.5339 15.6782 22.5502 15.6782 21.3368C15.6782 20.1233 14.703 19.1396 13.5 19.1396C12.297 19.1396 11.3218 20.1233 11.3218 21.3368C11.3218 22.5502 12.297 23.5339 13.5 23.5339Z" fill="currentColor"/>
</svg>
