<svg viewBox="0 0 22 18" fill="none" xmlns="http://www.w3.org/2000/svg"><path d="M10.884 17.136c-1.454-.069-2.881-.211-4.264-.675a1.807 1.807 0 0 0-1.289.058c-1.114.463-2.38 1.275-3.585 1.47-.478.077-.774-.257-.631-.708.294-.927.58-1.86.89-2.783.135-.407.061-.744-.209-1.07-.683-.821-1.212-1.73-1.5-2.755-.73-2.605-.088-4.91 1.676-6.929C3.46 2.04 5.382 1 7.58.447c3.064-.769 6.061-.56 8.946.74 1.987.895 3.599 2.224 4.627 4.15 1.517 2.845.961 6.2-1.369 8.484-1.745 1.71-3.885 2.647-6.283 3.045-.863.143-1.744.183-2.616.27z" fill="currentColor"/></svg>