<svg viewBox="0 0 20 10" fill="none" xmlns="http://www.w3.org/2000/svg"><path fill-rule="evenodd" clip-rule="evenodd" d="M0 5s4-5 10-5 10 5 10 5-4 5-10 5S0 5 0 5zm3-.005C3.97 4.013 5.612 2.641 7.694 2a3.756 3.756 0 0 0-1.502 3c0 1.22.587 2.302 1.492 2.992C5.616 7.346 3.972 5.973 3 4.995zm7 1.264c-.7 0-1.27-.565-1.27-1.26 0-.693.57-1.258 1.27-1.258.7 0 1.27.565 1.27 1.259S10.7 6.259 10 6.259zM12.306 8a3.756 3.756 0 0 0 1.502-3c0-1.22-.587-2.302-1.492-2.993 2.068.647 3.712 2.02 4.684 2.998-.969.982-2.611 2.354-4.694 2.995z" fill="currentColor"/></svg>