<svg viewBox="0 0 39 41" fill="currentColor" xmlns="http://www.w3.org/2000/svg">
<path fill-rule="evenodd" clip-rule="evenodd" d="M20.8376 18.3338C20.6109 18.3338 20.3918 18.2125 20.2765 17.9991C19.6944 16.9202 20.0988 15.5675 21.1777 14.9844C22.2572 14.4007 23.6103 14.8048 24.1934 15.8843C24.3603 16.1939 24.2453 16.5801 23.9358 16.7473C23.6262 16.9142 23.24 16.7996 23.0725 16.49C22.8231 16.028 22.2442 15.8557 21.7837 16.105C21.3216 16.3544 21.1484 16.933 21.3974 17.3941C21.5643 17.7036 21.449 18.0902 21.1392 18.2571C21.043 18.309 20.9395 18.3338 20.8376 18.3338Z" fill="currentColor"/>
<path d="M20.8376 18.3338C20.6109 18.3338 20.3918 18.2125 20.2765 17.9991C19.6944 16.9202 20.0988 15.5675 21.1777 14.9844C22.2572 14.4007 23.6103 14.8048 24.1934 15.8843C24.3603 16.1939 24.2453 16.5801 23.9358 16.7473C23.6262 16.9142 23.24 16.7996 23.0725 16.49C22.8231 16.028 22.2442 15.8557 21.7837 16.105C21.3216 16.3544 21.1484 16.933 21.3974 17.3941C21.5643 17.7036 21.449 18.0902 21.1392 18.2571C21.043 18.309 20.9395 18.3338 20.8376 18.3338" stroke="white" stroke-width="0.5"/>
<path fill-rule="evenodd" clip-rule="evenodd" d="M23.6335 16.8241C23.4071 16.8241 23.1883 16.7034 23.0728 16.4904C22.79 15.9675 22.7276 15.3656 22.8976 14.7959C23.0677 14.2262 23.4492 13.7568 23.9727 13.4744C24.4952 13.1922 25.0965 13.1305 25.6662 13.3002C26.2359 13.4702 26.7049 13.8517 26.9868 14.3746C27.154 14.6842 27.0387 15.0704 26.7291 15.2376C26.4183 15.4045 26.0327 15.2886 25.8662 14.9793C25.7458 14.7564 25.5452 14.5934 25.3016 14.5208C25.0586 14.4475 24.801 14.4743 24.578 14.5953C24.3539 14.716 24.1908 14.9166 24.1182 15.1602C24.0456 15.4035 24.072 15.6605 24.193 15.8841C24.3605 16.1933 24.2456 16.5799 23.9361 16.7474C23.8399 16.7996 23.7358 16.8241 23.6335 16.8241Z" fill="currentColor"/>
<path d="M23.6335 16.8241C23.4071 16.8241 23.1883 16.7034 23.0728 16.4904C22.79 15.9675 22.7276 15.3656 22.8976 14.7959C23.0677 14.2262 23.4492 13.7568 23.9727 13.4744C24.4952 13.1922 25.0965 13.1305 25.6662 13.3002C26.2359 13.4702 26.7049 13.8517 26.9868 14.3746C27.154 14.6842 27.0387 15.0704 26.7291 15.2376C26.4183 15.4045 26.0327 15.2886 25.8662 14.9793C25.7458 14.7564 25.5452 14.5934 25.3016 14.5208C25.0586 14.4475 24.801 14.4743 24.578 14.5953C24.3539 14.716 24.1908 14.9166 24.1182 15.1602C24.0456 15.4035 24.072 15.6605 24.193 15.8841C24.3605 16.1933 24.2456 16.5799 23.9361 16.7474C23.8399 16.7996 23.7358 16.8241 23.6335 16.8241" stroke="white" stroke-width="0.5"/>
<path fill-rule="evenodd" clip-rule="evenodd" d="M27.3984 17.1596C27.1719 17.1596 26.9528 17.0386 26.8376 16.8253C26.2545 15.7464 26.6573 14.393 27.7362 13.8093C28.8164 13.2278 30.1698 13.6312 30.7522 14.7098C30.9191 15.019 30.8041 15.4056 30.4946 15.5728C30.1848 15.7397 29.7988 15.6247 29.6313 15.3152C29.3823 14.8538 28.803 14.6812 28.3413 14.9302C27.8811 15.1792 27.7085 15.7581 27.9582 16.2199C28.1254 16.5291 28.0101 16.9157 27.7009 17.0829C27.6044 17.1348 27.5009 17.1596 27.3984 17.1596Z" fill="currentColor"/>
<path d="M27.3984 17.1596C27.1719 17.1596 26.9528 17.0386 26.8376 16.8253C26.2545 15.7464 26.6573 14.393 27.7362 13.8093C28.8164 13.2278 30.1698 13.6312 30.7522 14.7098C30.9191 15.019 30.8041 15.4056 30.4946 15.5728C30.1848 15.7397 29.7988 15.6247 29.6313 15.3152C29.3823 14.8538 28.803 14.6812 28.3413 14.9302C27.8811 15.1792 27.7085 15.7581 27.9582 16.2199C28.1254 16.5291 28.0101 16.9157 27.7009 17.0829C27.6044 17.1348 27.5009 17.1596 27.3984 17.1596" stroke="white" stroke-width="0.5"/>
<path fill-rule="evenodd" clip-rule="evenodd" d="M24.1583 31.4887C23.9293 31.4887 23.7083 31.3652 23.594 31.1486L17.9164 20.374L17.5066 19.6161C16.9232 18.5375 17.3267 17.1848 18.4056 16.6007C19.4876 16.0177 20.8394 16.4227 21.4222 17.5016C21.5891 17.8111 21.4741 18.1974 21.1646 18.3649C20.8541 18.5321 20.4688 18.4165 20.3013 18.1073C20.0519 17.6455 19.4739 17.4726 19.0112 17.7213C18.5501 17.9707 18.3775 18.549 18.6269 19.0101L19.372 20.4033L24.721 30.5547C24.885 30.8658 24.7656 31.2512 24.4544 31.4151C24.3595 31.4648 24.2583 31.4887 24.1583 31.4887Z" fill="currentColor"/>
<path d="M24.1583 31.4887C23.9293 31.4887 23.7083 31.3652 23.594 31.1486L17.9164 20.374L17.5066 19.6161C16.9232 18.5375 17.3267 17.1848 18.4056 16.6007C19.4876 16.0177 20.8394 16.4227 21.4222 17.5016C21.5891 17.8111 21.4741 18.1974 21.1646 18.3649C20.8541 18.5321 20.4688 18.4165 20.3013 18.1073C20.0519 17.6455 19.4739 17.4726 19.0112 17.7213C18.5501 17.9707 18.3775 18.549 18.6269 19.0101L19.372 20.4033L24.721 30.5547C24.885 30.8658 24.7656 31.2512 24.4544 31.4151C24.3595 31.4648 24.2583 31.4887 24.1583 31.4887" stroke="white" stroke-width="0.5"/>
<path fill-rule="evenodd" clip-rule="evenodd" d="M25.1031 26.4568C24.8748 26.4568 24.6541 26.3336 24.5398 26.1177L20.1287 17.7874C19.9644 17.4766 20.0828 17.0913 20.3936 16.9267C20.7048 16.7621 21.0898 16.8808 21.2544 17.1913L25.6655 25.5219C25.8301 25.8327 25.7117 26.2183 25.4006 26.3826C25.3057 26.4333 25.2038 26.4568 25.1031 26.4568Z" fill="currentColor"/>
<path d="M25.1031 26.4568C24.8748 26.4568 24.6541 26.3336 24.5398 26.1177L20.1287 17.7874C19.9644 17.4766 20.0828 17.0913 20.3936 16.9267C20.7048 16.7621 21.0898 16.8808 21.2544 17.1913L25.6655 25.5219C25.8301 25.8327 25.7117 26.2183 25.4006 26.3826C25.3057 26.4333 25.2038 26.4568 25.1031 26.4568" stroke="white" stroke-width="0.5"/>
<path fill-rule="evenodd" clip-rule="evenodd" d="M27.9238 24.9329C27.6952 24.9329 27.4745 24.8096 27.3602 24.5937L22.9507 16.2635C22.786 15.9524 22.9045 15.567 23.2156 15.4024C23.5264 15.2384 23.9124 15.3569 24.0764 15.6674L28.4859 23.9979C28.6505 24.3087 28.5321 24.6943 28.2209 24.8587C28.1264 24.909 28.0241 24.9329 27.9238 24.9329Z" fill="currentColor"/>
<path d="M27.9238 24.9329C27.6952 24.9329 27.4745 24.8096 27.3602 24.5937L22.9507 16.2635C22.786 15.9524 22.9045 15.567 23.2156 15.4024C23.5264 15.2384 23.9124 15.3569 24.0764 15.6674L28.4859 23.9979C28.6505 24.3087 28.5321 24.6943 28.2209 24.8587C28.1264 24.909 28.0241 24.9329 27.9238 24.9329" stroke="white" stroke-width="0.5"/>
<path fill-rule="evenodd" clip-rule="evenodd" d="M30.7184 23.4232C30.4897 23.4232 30.2693 23.2999 30.155 23.084L25.7446 14.7541C25.5799 14.4433 25.6987 14.058 26.0095 13.8933C26.3206 13.729 26.7059 13.8475 26.8703 14.158L31.2807 22.4879C31.4451 22.799 31.3266 23.1843 31.0158 23.349C30.9209 23.3993 30.819 23.4232 30.7184 23.4232Z" fill="currentColor"/>
<path d="M30.7184 23.4232C30.4897 23.4232 30.2693 23.2999 30.155 23.084L25.7446 14.7541C25.5799 14.4433 25.6987 14.058 26.0095 13.8933C26.3206 13.729 26.7059 13.8475 26.8703 14.158L31.2807 22.4879C31.4451 22.799 31.3266 23.1843 31.0158 23.349C30.9209 23.3993 30.819 23.4232 30.7184 23.4232" stroke="white" stroke-width="0.5"/>
<path fill-rule="evenodd" clip-rule="evenodd" d="M20.3608 30.2761C20.1306 30.2761 19.9086 30.1513 19.7949 29.9332C19.5249 29.4138 19.2931 28.9422 19.087 28.4919C18.7657 27.7907 18.7991 26.9866 19.1759 26.3408C19.5284 25.7373 20.1382 25.3571 20.8493 25.2969C20.891 25.2931 20.9324 25.2937 20.9738 25.2985L21.5327 25.3606C21.882 25.3995 22.1339 25.7144 22.0947 26.0641C22.0559 26.4137 21.7387 26.6685 21.3913 26.6264L20.9018 26.572C20.557 26.6191 20.3716 26.8191 20.2761 26.9828C20.1105 27.2668 20.0987 27.6416 20.2452 27.9614C20.4423 28.3922 20.6649 28.845 20.9251 29.3453C21.0875 29.6574 20.9662 30.0421 20.6541 30.2042C20.5602 30.2532 20.4595 30.2761 20.3608 30.2761Z" fill="currentColor"/>
<path d="M20.3608 30.2761C20.1306 30.2761 19.9086 30.1513 19.7949 29.9332C19.5249 29.4138 19.2931 28.9422 19.087 28.4919C18.7657 27.7907 18.7991 26.9866 19.1759 26.3408C19.5284 25.7373 20.1382 25.3571 20.8493 25.2969C20.891 25.2931 20.9324 25.2937 20.9738 25.2985L21.5327 25.3606C21.882 25.3995 22.1339 25.7144 22.0947 26.0641C22.0559 26.4137 21.7387 26.6685 21.3913 26.6264L20.9018 26.572C20.557 26.6191 20.3716 26.8191 20.2761 26.9828C20.1105 27.2668 20.0987 27.6416 20.2452 27.9614C20.4423 28.3922 20.6649 28.845 20.9251 29.3453C21.0875 29.6574 20.9662 30.0421 20.6541 30.2042C20.5602 30.2532 20.4595 30.2761 20.3608 30.2761" stroke="white" stroke-width="0.5"/>
<path fill-rule="evenodd" clip-rule="evenodd" d="M36.4598 27.113C36.2309 27.113 36.0092 26.9892 35.8952 26.772L35.8455 26.6771L35.1013 25.3524L30.3215 16.5744C30.3176 16.568 30.3141 16.5613 30.3106 16.555L29.6912 15.434C29.5206 15.1264 29.6323 14.7386 29.9403 14.5685C30.2482 14.3985 30.6358 14.5102 30.8058 14.8179L31.3672 15.8337C31.3746 15.8452 31.3812 15.8569 31.3882 15.869L36.2162 24.7359L37.0235 26.1806C37.1868 26.4918 37.0668 26.8768 36.755 27.0404C36.6608 27.0898 36.5595 27.113 36.4598 27.113Z" fill="currentColor"/>
<path d="M36.4598 27.113C36.2309 27.113 36.0092 26.9892 35.8952 26.772L35.8455 26.6771L35.1013 25.3524L30.3215 16.5744C30.3176 16.568 30.3141 16.5613 30.3106 16.555L29.6912 15.434C29.5206 15.1264 29.6323 14.7386 29.9403 14.5685C30.2482 14.3985 30.6358 14.5102 30.8058 14.8179L31.3672 15.8337C31.3746 15.8452 31.3812 15.8569 31.3882 15.869L36.2162 24.7359L37.0235 26.1806C37.1868 26.4918 37.0668 26.8768 36.755 27.0404C36.6608 27.0898 36.5595 27.113 36.4598 27.113" stroke="white" stroke-width="0.5"/>
<path fill-rule="evenodd" clip-rule="evenodd" d="M30.1093 39.7598C27.0519 39.7602 24.0932 38.1074 22.5739 35.2182L19.307 29.005C19.1436 28.6935 19.2633 28.3085 19.5745 28.1448C19.8865 27.9808 20.2709 28.1009 20.4346 28.412L23.7015 34.6255C25.5552 38.151 29.9319 39.5105 33.4577 37.6571C36.9833 35.8035 38.3437 31.4271 36.4897 27.9015L35.8461 26.6778C35.6824 26.3666 35.8021 25.9816 36.1136 25.8176C36.425 25.6533 36.81 25.774 36.9737 26.0851L37.6173 27.3089C39.7977 31.456 38.1978 36.604 34.0504 38.7848C32.7922 39.4462 31.4413 39.7598 30.1093 39.7598Z" fill="currentColor"/>
<path d="M30.1093 39.7598C27.0519 39.7602 24.0932 38.1074 22.5739 35.2182L19.307 29.005C19.1436 28.6935 19.2633 28.3085 19.5745 28.1448C19.8865 27.9808 20.2709 28.1009 20.4346 28.412L23.7015 34.6255C25.5552 38.151 29.9319 39.5105 33.4577 37.6571C36.9833 35.8035 38.3437 31.4271 36.4897 27.9015L35.8461 26.6778C35.6824 26.3666 35.8021 25.9816 36.1136 25.8176C36.425 25.6533 36.81 25.774 36.9737 26.0851L37.6173 27.3089C39.7977 31.456 38.1978 36.604 34.0504 38.7848C32.7922 39.4462 31.4413 39.7598 30.1093 39.7598" stroke="white" stroke-width="0.5"/>
<path fill-rule="evenodd" clip-rule="evenodd" d="M17.7448 36.3473C11.7542 36.3473 5.98013 33.061 3.07622 27.5382C-1.15593 19.4888 1.94956 9.49693 9.99923 5.26478C13.898 3.21463 18.3623 2.80542 22.5692 4.11296C26.7759 5.4205 30.2221 8.28811 32.2723 12.1872C33.6763 14.8573 34.3224 17.8526 34.1397 20.8489C34.1186 21.2001 33.8136 21.4718 33.4655 21.446C33.1146 21.4246 32.8471 21.1227 32.8684 20.7715C33.0369 18.0077 32.4404 15.2442 31.1447 12.7801C29.2531 9.18198 26.0731 6.53602 22.1913 5.32942C18.3084 4.12251 14.19 4.50051 10.5919 6.39208C3.16443 10.2975 0.298414 19.5178 4.20383 26.9455C7.67967 33.5552 15.6102 36.6941 22.6527 34.2469C22.9839 34.13 23.3475 34.3067 23.4631 34.6392C23.5787 34.9713 23.4033 35.3344 23.0708 35.4496C21.3228 36.0572 19.5243 36.3473 17.7448 36.3473Z" fill="currentColor"/>
<path d="M17.7448 36.3473C11.7542 36.3473 5.98013 33.061 3.07622 27.5382C-1.15593 19.4888 1.94956 9.49693 9.99923 5.26478C13.898 3.21463 18.3623 2.80542 22.5692 4.11296C26.7759 5.4205 30.2221 8.28811 32.2723 12.1872C33.6763 14.8573 34.3224 17.8526 34.1397 20.8489C34.1186 21.2001 33.8136 21.4718 33.4655 21.446C33.1146 21.4246 32.8471 21.1227 32.8684 20.7715C33.0369 18.0077 32.4404 15.2442 31.1447 12.7801C29.2531 9.18198 26.0731 6.53602 22.1913 5.32942C18.3084 4.12251 14.19 4.50051 10.5919 6.39208C3.16443 10.2975 0.298414 19.5178 4.20383 26.9455C7.67967 33.5552 15.6102 36.6941 22.6527 34.2469C22.9839 34.13 23.3475 34.3067 23.4631 34.6392C23.5787 34.9713 23.4033 35.3344 23.0708 35.4496C21.3228 36.0572 19.5243 36.3473 17.7448 36.3473" stroke="white" stroke-width="0.5"/>
<path fill-rule="evenodd" clip-rule="evenodd" d="M17.69 27.6846C14.8437 27.6846 12.1261 26.1181 10.7511 23.5024C9.77884 21.6532 9.5849 19.5362 10.2046 17.5414C10.8249 15.5464 12.1847 13.9121 14.0339 12.9399C17.2477 11.2496 21.2849 12.0288 23.6335 14.7945C23.8612 15.0626 23.8284 15.4645 23.5605 15.6922C23.2918 15.9196 22.8902 15.8871 22.6625 15.619C20.6977 13.3048 17.318 12.6517 14.6265 14.0675C13.0786 14.8811 11.9401 16.2492 11.4214 17.9194C10.9023 19.5893 11.0644 21.3618 11.8787 22.9098C13.3193 25.6513 16.5207 27.0165 19.4905 26.1554C19.8271 26.0583 20.1815 26.2516 20.2796 26.5897C20.3777 26.9273 20.1828 27.2808 19.8452 27.3785C19.1313 27.5855 18.4065 27.6846 17.69 27.6846Z" fill="currentColor"/>
<path d="M17.69 27.6846C14.8437 27.6846 12.1261 26.1181 10.7511 23.5024C9.77884 21.6532 9.5849 19.5362 10.2046 17.5414C10.8249 15.5464 12.1847 13.9121 14.0339 12.9399C17.2477 11.2496 21.2849 12.0288 23.6335 14.7945C23.8612 15.0626 23.8284 15.4645 23.5605 15.6922C23.2918 15.9196 22.8902 15.8871 22.6625 15.619C20.6977 13.3048 17.318 12.6517 14.6265 14.0675C13.0786 14.8811 11.9401 16.2492 11.4214 17.9194C10.9023 19.5893 11.0644 21.3618 11.8787 22.9098C13.3193 25.6513 16.5207 27.0165 19.4905 26.1554C19.8271 26.0583 20.1815 26.2516 20.2796 26.5897C20.3777 26.9273 20.1828 27.2808 19.8452 27.3785C19.1313 27.5855 18.4065 27.6846 17.69 27.6846" stroke="white" stroke-width="0.5"/>
<path fill-rule="evenodd" clip-rule="evenodd" d="M5.33205 16.0187C5.26009 16.0187 5.18652 16.0066 5.11519 15.9804C4.78465 15.8607 4.61364 15.4955 4.73369 15.1646C5.70718 12.4791 7.45609 10.1997 9.79157 8.57339C10.26 8.2473 10.7565 7.94573 11.2666 7.67697C11.5793 7.5136 11.9634 7.6327 12.1267 7.94414C12.2907 8.25558 12.1713 8.64058 11.8602 8.80427C11.3959 9.04851 10.9447 9.32238 10.5195 9.61853C8.40124 11.0939 6.81474 13.1619 5.93073 15.5989C5.83679 15.8578 5.59254 16.0187 5.33205 16.0187Z" fill="currentColor"/>
<path d="M5.33205 16.0187C5.26009 16.0187 5.18652 16.0066 5.11519 15.9804C4.78465 15.8607 4.61364 15.4955 4.73369 15.1646C5.70718 12.4791 7.45609 10.1997 9.79157 8.57339C10.26 8.2473 10.7565 7.94573 11.2666 7.67697C11.5793 7.5136 11.9634 7.6327 12.1267 7.94414C12.2907 8.25558 12.1713 8.64058 11.8602 8.80427C11.3959 9.04851 10.9447 9.32238 10.5195 9.61853C8.40124 11.0939 6.81474 13.1619 5.93073 15.5989C5.83679 15.8578 5.59254 16.0187 5.33205 16.0187" stroke="white" stroke-width="0.5"/>
<path fill-rule="evenodd" clip-rule="evenodd" d="M4.58753 19.4156C4.56969 19.4156 4.55186 19.415 4.53403 19.4134C4.18342 19.3844 3.92293 19.0765 3.95191 18.7258C3.99108 18.2587 4.0554 17.7836 4.14361 17.3139C4.20858 16.9687 4.54231 16.7394 4.88718 16.8059C5.23302 16.8709 5.46071 17.2037 5.39574 17.5495C5.31549 17.9762 5.25658 18.4074 5.22155 18.8312C5.19385 19.164 4.91553 19.4156 4.58753 19.4156Z" fill="currentColor"/>
<path d="M4.58753 19.4156C4.56969 19.4156 4.55186 19.415 4.53403 19.4134C4.18342 19.3844 3.92293 19.0765 3.95191 18.7258C3.99108 18.2587 4.0554 17.7836 4.14361 17.3139C4.20858 16.9687 4.54231 16.7394 4.88718 16.8059C5.23302 16.8709 5.46071 17.2037 5.39574 17.5495C5.31549 17.9762 5.25658 18.4074 5.22155 18.8312C5.19385 19.164 4.91553 19.4156 4.58753 19.4156" stroke="white" stroke-width="0.5"/>
<path fill-rule="evenodd" clip-rule="evenodd" d="M28.885 5.61625C28.7239 5.61625 28.5624 5.55542 28.4382 5.43346C28.0653 5.06629 27.6673 4.72046 27.2546 4.4052C25.2044 2.83685 22.7514 1.95539 20.1606 1.85604C19.809 1.84266 19.5351 1.54683 19.5488 1.19526C19.5625 0.844015 19.8529 0.57461 20.2096 0.583208C23.0642 0.693072 25.7678 1.66465 28.0284 3.39317C28.4828 3.74028 28.9213 4.12146 29.3321 4.52557C29.5827 4.77236 29.5859 5.17552 29.3391 5.42613C29.2146 5.55288 29.0497 5.61625 28.885 5.61625Z" fill="currentColor"/>
<path d="M28.885 5.61625C28.7239 5.61625 28.5624 5.55542 28.4382 5.43346C28.0653 5.06629 27.6673 4.72046 27.2546 4.4052C25.2044 2.83685 22.7514 1.95539 20.1606 1.85604C19.809 1.84266 19.5351 1.54683 19.5488 1.19526C19.5625 0.844015 19.8529 0.57461 20.2096 0.583208C23.0642 0.693072 25.7678 1.66465 28.0284 3.39317C28.4828 3.74028 28.9213 4.12146 29.3321 4.52557C29.5827 4.77236 29.5859 5.17552 29.3391 5.42613C29.2146 5.55288 29.0497 5.61625 28.885 5.61625" stroke="white" stroke-width="0.5"/>
<path fill-rule="evenodd" clip-rule="evenodd" d="M13.9074 39.4075C13.8788 39.4075 13.8501 39.4056 13.8211 39.4015C11.884 39.1391 10.0638 38.4856 8.41136 37.4599C8.11266 37.2742 8.02063 36.8816 8.20628 36.5829C8.39194 36.2835 8.78458 36.1918 9.08328 36.3775C10.5825 37.3083 12.2337 37.9009 13.9921 38.1395C14.3408 38.1869 14.5848 38.5076 14.5376 38.856C14.4943 39.1757 14.2211 39.4075 13.9074 39.4075Z" fill="currentColor"/>
<path d="M13.9074 39.4075C13.8788 39.4075 13.8501 39.4056 13.8211 39.4015C11.884 39.1391 10.0638 38.4856 8.41136 37.4599C8.11266 37.2742 8.02063 36.8816 8.20628 36.5829C8.39194 36.2835 8.78458 36.1918 9.08328 36.3775C10.5825 37.3083 12.2337 37.9009 13.9921 38.1395C14.3408 38.1869 14.5848 38.5076 14.5376 38.856C14.4943 39.1757 14.2211 39.4075 13.9074 39.4075" stroke="white" stroke-width="0.5"/>
<path fill-rule="evenodd" clip-rule="evenodd" d="M6.16638 36.2181C6.04888 36.2181 5.93041 36.1859 5.82405 36.1181C4.60854 35.3424 3.52742 34.3867 2.61125 33.2776C2.38707 33.0063 2.4256 32.6047 2.6966 32.3808C2.96791 32.1573 3.36947 32.1949 3.59334 32.4665C4.42448 33.4728 5.40593 34.3402 6.50967 35.0446C6.80582 35.2335 6.89308 35.6274 6.7036 35.9239C6.58227 36.1143 6.37656 36.2181 6.16638 36.2181Z" fill="currentColor"/>
<path d="M6.16638 36.2181C6.04888 36.2181 5.93041 36.1859 5.82405 36.1181C4.60854 35.3424 3.52742 34.3867 2.61125 33.2776C2.38707 33.0063 2.4256 32.6047 2.6966 32.3808C2.96791 32.1573 3.36947 32.1949 3.59334 32.4665C4.42448 33.4728 5.40593 34.3402 6.50967 35.0446C6.80582 35.2335 6.89308 35.6274 6.7036 35.9239C6.58227 36.1143 6.37656 36.2181 6.16638 36.2181" stroke="white" stroke-width="0.5"/>
<path fill-rule="evenodd" clip-rule="evenodd" d="M17.5887 22.0577C17.3527 22.0577 17.1152 22.022 16.8833 21.9497C16.2793 21.7621 15.7847 21.3504 15.4901 20.7902C15.1956 20.2307 15.137 19.5894 15.3246 18.985C15.5124 18.3809 15.9242 17.8863 16.4843 17.5924C16.9158 17.365 17.4008 17.2768 17.8842 17.3389C18.2332 17.3838 18.48 17.7029 18.4351 18.0516C18.3902 18.4006 18.0699 18.6455 17.7228 18.6025C17.4992 18.5745 17.2766 18.6146 17.0773 18.7197C16.8181 18.856 16.6276 19.0843 16.541 19.3633C16.4541 19.6422 16.4815 19.9387 16.6174 20.1973C16.7537 20.4565 16.9824 20.6466 17.2613 20.7336C17.5403 20.8202 17.8368 20.7931 18.0954 20.6568C18.4068 20.4931 18.7921 20.6125 18.9555 20.9237C19.1192 21.2351 18.9997 21.6201 18.6886 21.7841C18.3434 21.9656 17.9677 22.0577 17.5887 22.0577Z" fill="currentColor"/>
<path d="M17.5887 22.0577C17.3527 22.0577 17.1152 22.022 16.8833 21.9497C16.2793 21.7621 15.7847 21.3504 15.4901 20.7902C15.1956 20.2307 15.137 19.5894 15.3246 18.985C15.5124 18.3809 15.9242 17.8863 16.4843 17.5924C16.9158 17.365 17.4008 17.2768 17.8842 17.3389C18.2332 17.3838 18.48 17.7029 18.4351 18.0516C18.3902 18.4006 18.0699 18.6455 17.7228 18.6025C17.4992 18.5745 17.2766 18.6146 17.0773 18.7197C16.8181 18.856 16.6276 19.0843 16.541 19.3633C16.4541 19.6422 16.4815 19.9387 16.6174 20.1973C16.7537 20.4565 16.9824 20.6466 17.2613 20.7336C17.5403 20.8202 17.8368 20.7931 18.0954 20.6568C18.4068 20.4931 18.7921 20.6125 18.9555 20.9237C19.1192 21.2351 18.9997 21.6201 18.6886 21.7841C18.3434 21.9656 17.9677 22.0577 17.5887 22.0577" stroke="white" stroke-width="0.5"/>
</svg>
