<svg viewBox="0 0 108 121" fill="none" xmlns="http://www.w3.org/2000/svg"><path d="M54 0L0 24.293S.966 62.53 13.075 84.329C27.001 109.395 54 121 54 121s27-11.605 40.925-36.671C107.034 62.53 108 24.293 108 24.293L54 0z" fill="#FA9593" fill-opacity=".34"/><path d="M54 11L11 30.474s.77 30.653 10.412 48.129C32.5 98.697 54 108 54 108s21.5-9.303 32.588-29.397C96.231 61.127 97 30.474 97 30.474L54 11z" fill="#E61A50"/><path fill-rule="evenodd" clip-rule="evenodd" d="M74 48.44L51.674 71 38 57.182l3.403-3.439 10.27 10.379L70.598 45 74 48.44z" fill="#fff"/></svg>