<svg viewBox="0 0 24 21" fill="none" xmlns="http://www.w3.org/2000/svg"><path fill-rule="evenodd" clip-rule="evenodd" d="M21.341 2.57c-2.21-2.094-5.795-2.094-8.006 0L12 3.835l-1.335-1.263C8.454.476 4.87.476 2.66 2.57c-2.212 2.093-2.212 5.489 0 7.582l1.334 1.264L12 19l8.006-7.583 1.334-1.264c2.212-2.093 2.212-5.489 0-7.582z" fill="currentColor"/><path d="M21.341 2.57c-2.21-2.094-5.795-2.094-8.006 0L12 3.835l-1.335-1.263C8.454.476 4.87.476 2.66 2.57c-2.212 2.093-2.212 5.489 0 7.582l1.334 1.264L12 19l8.006-7.583 1.334-1.264c2.212-2.093 2.212-5.489 0-7.582" stroke="#fff" stroke-width="2"/></svg>