<svg viewBox="0 0 112 124" fill="none" xmlns="http://www.w3.org/2000/svg"><path fill-rule="evenodd" clip-rule="evenodd" d="M83.346 108.943c.706-1.528 1.858-3.365 3.529-3.917 9.698-3.479 14.979-4.261 15.112-3.97l.001.049c.018.446.152 3.834-1.212 8.269-1.492 4.677-4.706 10.56-12.37 13.443-7.73 2.711-13.974.267-18.126-2.359-3.937-2.548-6.016-5.256-6.255-5.569L64 114.86c-.084-.307 4.452-3.1 14.121-6.655 1.635-.647 3.7.021 5.224.738zm-16.264 6.12c3.403 1.529 9.308 3.166 18.516.045C94.66 111.589 98.376 106.356 100 103c-3.282 3.039-9.823 8.643-14.988 10.52-5.163 1.876-13.464 1.767-17.93 1.543z" fill="#FFBFBD"/><path fill-rule="evenodd" clip-rule="evenodd" d="M90.677 43.75a22.249 22.249 0 004.202-1.076c11.455-4.154 17.36-16.776 13.193-28.191-4.167-11.42-16.83-17.305-28.283-13.15-11.455 4.153-17.361 16.772-13.194 28.19.49 1.345 1.1 2.613 1.81 3.797a33.005 33.005 0 00-13.182 1.937 32.923 32.923 0 00-11.348 6.958 22.052 22.052 0 00-1.061-4.07C38.647 26.73 25.984 20.844 14.53 24.997 3.075 29.15-2.831 41.77 1.336 53.187c4.167 11.418 16.83 17.304 28.284 13.15a22.21 22.21 0 003.914-1.866 32.7 32.7 0 001.953 12.958 33.107 33.107 0 001.476 3.43c-.274.105-.548.207-.822.306-1.883.684-3.535 1.141-5.05 1.397l-8.202 1.387 4.96 6.657c2.643 3.546 6.376 8.002 11.825 11.001 6.619 3.644 14.276 4.356 22.759 2.12.75-.196 1.492-.429 2.205-.686 5.725-2.077 9.764-5.94 11.455-10.61 4.306 2.495 9.891 2.867 15.617.792.712-.259 1.43-.557 2.132-.885 7.941-3.72 13.348-9.17 16.072-16.202 2.242-5.79 2.229-11.594 1.968-16.003l-.492-8.278-7.179 4.19c-1.324.773-2.885 1.483-4.769 2.166-.273.099-.55.196-.828.291a33.086 33.086 0 00-1.08-3.574 32.78 32.78 0 00-6.857-11.179zM44.618 77.456c-1.709.811-3.453 1.64-5.196 2.394.905-12.544 9.023-24 21.648-28.579 12.624-4.577 26.23-.998 35.012 8.032-1.82.538-3.688 1.02-5.52 1.492l-.082.022c-2.94.758-5.718 1.474-8.23 2.386-1.541.56-2.841 1.141-3.974 1.78-4.104 2.312-7.176 5.82-8.63 9.786-3.67-2.107-8.286-2.828-12.92-1.972-1.281.238-2.651.623-4.193 1.183-2.517.912-5.108 2.143-7.855 3.448l-.06.028zm44.884 5.676c-.424.2-.855.378-1.28.533h-.002c-1.864.677-6.443 1.87-8.677-1.665-.622-.983-.78-2.033-.485-3.202.476-1.88 2.06-3.735 4.24-4.964.627-.354 1.449-.713 2.44-1.074 2.049-.742 4.586-1.397 7.274-2.091l.034-.009c2.76-.71 5.602-1.443 8.421-2.386-.89 5.744-3.875 11.069-11.965 14.858zM66.725 86.65c.566 4.138-3.711 6.156-5.576 6.833-.426.155-.87.293-1.324.412-8.643 2.28-14.361.11-18.746-3.72 2.765-1.085 5.414-2.342 7.989-3.566l.038-.019c2.504-1.188 4.869-2.31 6.916-3.053.99-.359 1.852-.61 2.562-.739 2.462-.456 4.871-.049 6.449 1.087.98.708 1.535 1.612 1.692 2.765z" fill="#E61A50"/><path opacity=".5" fill-rule="evenodd" clip-rule="evenodd" d="M26.787 58.155c-7.254 2.64-15.304-1.116-17.943-8.37-2.639-7.253 1.117-15.302 8.37-17.94 7.254-2.64 15.302 1.115 17.941 8.369 2.64 7.253-1.114 15.303-8.368 17.941zM92.786 34.156c7.255-2.64 11.008-10.688 8.37-17.943-2.64-7.253-10.69-11.008-17.942-8.369-7.254 2.64-11.009 10.689-8.37 17.942 2.64 7.254 10.688 11.008 17.942 8.37z" fill="#fff"/></svg>