<svg viewBox="0 0 22 27" fill="none" 
    xmlns="http://www.w3.org/2000/svg">
    <path fill-rule="evenodd" clip-rule="evenodd" d="M11.0015 0C9.70493 0 8.59209 0.890216 8.30779 2.1115C4.54779 3.2081 1.76391 6.54485 1.76391 10.562V15.6824C1.76391 16.2272 1.48185 16.7135 1.03635 17.004C0.612055 17.2466 0 17.8646 0 18.849C0 20.0589 0.992696 21 2.17594 21H19.8241C21.0073 21 22 20.0589 22 18.849C22 17.8655 21.3904 17.2467 20.9662 17.0038C20.5202 16.7146 20.2391 16.2294 20.2391 15.6824V10.562C20.2391 6.54791 17.4555 3.20864 13.6955 2.1116C13.4115 0.887869 12.2976 0 11.0015 0ZM10.2376 2.72647C10.2376 2.34562 10.5595 2 11.0015 2C11.4446 2 11.7654 2.34377 11.7654 2.72647V3.72282L12.5617 3.88848C15.8448 4.57145 18.2391 7.32848 18.2391 10.562V15.6824C18.2391 16.9628 18.9144 18.0768 19.9222 18.71L19.9558 18.7311L19.9584 18.7325C19.9626 18.737 19.9676 18.743 19.9727 18.7503C19.9805 18.7616 19.9868 18.7738 19.9913 18.7872C19.9954 18.7996 20 18.819 20 18.849C20 18.9141 19.9434 19 19.8241 19H2.17594C2.0566 19 2 18.9141 2 18.849C2 18.8196 2.00451 18.8008 2.00851 18.7888C2.01287 18.7758 2.01909 18.7637 2.02695 18.7524C2.03222 18.7448 2.03753 18.7386 2.04191 18.734L2.04709 18.7313L2.08238 18.709C3.08403 18.0771 3.76391 16.9646 3.76391 15.6824V10.562C3.76391 7.32575 6.15799 4.5715 9.44126 3.88848L10.2376 3.72282V2.72647Z" fill="currentColor"/>
    <path fill-rule="evenodd" clip-rule="evenodd" d="M7 22V23C7 25.2084 8.78721 27 11 27C13.209 27 15 25.209 15 23V22H7ZM11 25C10.2581 25 9.61217 24.5979 9.26691 24H12.7324C12.3866 24.5978 11.7402 25 11 25Z" fill="currentColor"/>
</svg>
