<svg viewBox="0 0 57 48" fill="none" xmlns="http://www.w3.org/2000/svg">
<path fill-rule="evenodd" clip-rule="evenodd" d="M16.6123 8.19725L20.5676 0.286621H36.3889L40.3442 8.19725H51.4191C54.4869 8.19725 56.9566 10.667 56.9566 13.7347V42.213C56.9566 45.2807 54.4869 47.7504 51.4191 47.7504H5.53744C2.4697 47.7504 0 45.2807 0 42.213V13.7347C0 10.667 2.4697 8.19725 5.53744 8.19725H16.6123ZM39.4546 27.9739C39.4546 21.9347 34.5174 16.9975 28.4783 16.9975C22.4392 16.9975 17.5019 21.9347 17.5019 27.9739C17.5019 34.013 22.4392 38.9502 28.4783 38.9502C34.5174 38.9502 39.4546 34.013 39.4546 27.9739Z" fill="currentColor"/>
</svg>
