<svg viewBox="0 0 9 14" fill="none" xmlns="http://www.w3.org/2000/svg"><path fill-rule="evenodd" clip-rule="evenodd" d="M.109 4.494h1.053l-.007.007.343-.001c.228-.002.457-.003.686.001a.128.128 0 0 0 .117-.027.123.123 0 0 0 .042-.111c.018-.177.048-.352.091-.525.135-.521.41-.952.922-1.186a2.922 2.922 0 0 1 2.261-.082c.762.27 1.056.843.902 1.622-.091.458-.319.879-.654 1.21-.396.401-.805.784-1.228 1.163a3.335 3.335 0 0 0-1.019 1.571c-.143.511-.16 1.037-.178 1.562l-.008.218a.07.07 0 0 0 .022.065.073.073 0 0 0 .067.017h1.864a.081.081 0 0 0 .071-.023.078.078 0 0 0 .022-.07c.002-.054.006-.108.011-.162.007-.068.013-.137.013-.206.01-.345.074-.687.188-1.014.164-.444.494-.752.845-1.05l.19-.162c.412-.347.826-.697 1.218-1.068.59-.53.958-1.258 1.03-2.04a3.91 3.91 0 0 0-.24-1.879A3.466 3.466 0 0 0 6.552.33a5.536 5.536 0 0 0-4.25.204A3.827 3.827 0 0 0 .441 2.364C.126 3.01.038 3.705 0 4.408c-.005.08.044.087.108.087zm5.477 6.943A1.45 1.45 0 0 0 4.51 11 1.451 1.451 0 0 0 3 12.476a1.5 1.5 0 1 0 2.998.046c.02-.404-.13-.797-.412-1.085z" fill="currentColor"/></svg>