<svg viewBox="0 0 33 41" fill="none" 
    xmlns="http://www.w3.org/2000/svg">
    <path d="M26.3891 22.0261V35.9614C26.0628 37.5793 23.9612 39.3631 16.6397 39.3631C9.67431 39.3631 7.21654 37.5793 6.89026 35.9614V22.0261" stroke="currentColor" stroke-width="1.44" stroke-linecap="round"/>
    <path d="M25.9794 25.8683C24.329 26.7878 21.4586 27.4543 16.6381 27.4543C11.9547 27.4543 9.02757 26.7592 7.32031 25.8093" stroke="currentColor" stroke-width="1.44" stroke-linecap="round"/>
    <path fill-rule="evenodd" clip-rule="evenodd" d="M16.6397 22.795C24.9856 22.795 31.7513 20.8307 31.7513 18.4077C31.7513 15.9847 24.9856 14.0205 16.6397 14.0205C8.29381 14.0205 1.52814 15.9847 1.52814 18.4077C1.52814 20.8307 8.29381 22.795 16.6397 22.795Z" stroke="currentColor" stroke-width="1.44"/>
    <path d="M7.49432 18.0117C7.49432 19.1584 11.5888 20.0879 16.6397 20.0879C21.6905 20.0879 25.785 19.1584 25.785 18.0117" stroke="currentColor" stroke-width="1.44"/>
    <path fill-rule="evenodd" clip-rule="evenodd" d="M18.4488 17.8331C18.4488 17.8331 17.4009 13.3524 18.4488 8.32088C18.9762 5.78854 22.0011 0.7771 22.0011 0.7771C22.0011 0.7771 24.3749 6.59178 24.3749 9.30511C24.3749 12.0184 22.0011 17.8331 22.0011 17.8331" fill="white"/>
    <path d="M18.4488 17.8331C18.4488 17.8331 17.4009 13.3524 18.4488 8.32088C18.9762 5.78854 22.0011 0.7771 22.0011 0.7771C22.0011 0.7771 24.3749 6.59178 24.3749 9.30511C24.3749 12.0184 22.0011 17.8331 22.0011 17.8331" stroke="currentColor" stroke-width="1.2" stroke-linejoin="round"/>
    <path fill-rule="evenodd" clip-rule="evenodd" d="M14.7109 17.7125C14.7109 17.197 15.0809 7.80688 15.0809 7.80688L9.92871 11.1859L10.8858 17.7125" fill="white"/>
    <path d="M14.7109 17.7125C14.7109 17.197 15.0809 7.80688 15.0809 7.80688L9.92871 11.1859L10.8858 17.7125" stroke="currentColor" stroke-width="1.2"/>
    <path fill-rule="evenodd" clip-rule="evenodd" d="M15.1729 8.18606C16.0025 6.45189 13.8374 3.42604 9.38293 5.96745C4.9285 8.50886 4.53619 13.7936 4.53619 13.7936C4.53619 13.7936 14.3432 9.92024 15.1729 8.18606Z" fill="white" stroke="currentColor" stroke-width="1.2"/>
</svg>
