<svg viewBox="0 0 121 89" fill="none" xmlns="http://www.w3.org/2000/svg"><path d="M39 0a2 2 0 00-2 2v58a2 2 0 002 2h52.166L112 77V62h7a2 2 0 002-2V2a2 2 0 00-2-2H39z" fill="#FEE0DF"/><path d="M2 14a2 2 0 00-2 2v56a2 2 0 002 2h10v15l22.059-15H80a2 2 0 002-2V16a2 2 0 00-2-2H2z" fill="#E61A50"/><path fill-rule="evenodd" clip-rule="evenodd" d="M33.406 29.23c-4.047 0-7.16 3.1-7.16 7.188 0 2.523 1.107 4.956 3.48 7.861 2.354 2.882 5.735 5.975 10.007 9.88l.249.229 1.018.915 1.018-.915.25-.228c4.27-3.906 7.652-6.999 10.006-9.88 2.373-2.907 3.48-5.34 3.48-7.862 0-4.088-3.112-7.188-7.16-7.188-2.304 0-4.501 1.06-5.969 2.799L41 33.953l-1.625-1.924c-1.468-1.739-3.665-2.799-5.97-2.799zM22 36.419C22 30.018 26.989 25 33.406 25c2.814 0 5.488 1.005 7.594 2.713A12.082 12.082 0 0148.594 25C55.011 25 60 30.018 60 36.418c0 3.903-1.763 7.263-4.432 10.53-2.552 3.127-6.136 6.403-10.254 10.169l-.43.393-.007.006L41 61l-3.877-3.484-.006-.006-.43-.393c-4.119-3.766-7.703-7.042-10.255-10.168C23.762 43.68 22 40.32 22 36.418z" fill="#fff"/></svg>