<svg viewBox="0 0 25 14" fill="none" xmlns="http://www.w3.org/2000/svg"><path fill-rule="evenodd" clip-rule="evenodd" d="M13.726 13.941s.45-.049.682-.292c.211-.224.204-.645.204-.645s-.028-1.967.902-2.258c.918-.285 2.095 1.903 3.345 2.744.944.636 1.66.497 1.66.497l3.34-.046s1.746-.105.918-1.453c-.069-.11-.483-.997-2.482-2.82-2.095-1.907-1.814-1.598.708-4.898 1.535-2.009 2.15-3.235 1.957-3.76-.182-.502-1.312-.368-1.312-.368L19.89.664s-.278-.037-.485.084c-.202.12-.333.396-.333.396s-.594 1.555-1.387 2.877c-1.674 2.79-2.343 2.937-2.617 2.765-.637-.405-.478-1.623-.478-2.489 0-2.704.418-3.83-.813-4.122-.409-.098-.71-.161-1.755-.172-1.341-.013-2.476.005-3.12.313-.427.206-.757.664-.556.69.249.033.811.15 1.11.548.385.515.371 1.67.371 1.67s.221 3.182-.517 3.577c-.506.271-1.2-.282-2.694-2.813-.764-1.296-1.341-2.73-1.341-2.73s-.111-.267-.31-.411C4.721.673 4.385.619 4.385.619L.815.642S.278.656.08.885c-.175.203-.014.624-.014.624s2.797 6.423 5.964 9.66c2.904 2.967 6.2 2.772 6.2 2.772h1.495z" fill="currentColor"/></svg>