<svg viewBox="0 0 21 18" fill="none" xmlns="http://www.w3.org/2000/svg"><path fill-rule="evenodd" clip-rule="evenodd" d="M18.526 2.846A4.51 4.51 0 0 0 20.419.333a8.357 8.357 0 0 1-2.736 1.102A4.194 4.194 0 0 0 14.538 0c-2.379 0-4.307 2.035-4.307 4.544 0 .356.036.703.11 1.034-3.58-.19-6.753-1.996-8.88-4.747a4.724 4.724 0 0 0-.583 2.285c0 1.576.76 2.967 1.917 3.783a4.154 4.154 0 0 1-1.952-.568v.056c0 2.202 1.484 4.04 3.457 4.455a4.01 4.01 0 0 1-1.136.16c-.278 0-.549-.027-.81-.08.547 1.804 2.138 3.12 4.024 3.155-1.475 1.219-3.333 1.944-5.35 1.944-.348 0-.692-.02-1.028-.062A11.748 11.748 0 0 0 6.604 18C14.53 18 18.86 11.076 18.86 5.071c0-.197-.003-.394-.011-.587A9.005 9.005 0 0 0 21 2.13a8.257 8.257 0 0 1-2.474.715z" fill="currentColor"/></svg>