<svg viewBox="0 0 22 23" fill="none" xmlns="http://www.w3.org/2000/svg"><path fill-rule="evenodd" clip-rule="evenodd" d="M10.02 11.024c0 .652 1.24 1.76 1.89 2.215 1.9 1.33 2.515 2.567 2.515 4.629C14.425 20.441 11.91 23 7.36 23 3.37 23 0 21.39 0 18.819c0-2.614 3.073-5.132 7.065-5.132.22 0 .43-.003.637-.006.204-.003.405-.006.61-.006-.548-.527-.98-1.173-.98-1.97 0-.47.154-.926.365-1.329-.217.017-.437.02-.666.02-3.278 0-5.475-2.31-5.475-5.175C1.556 2.42 4.59 0 7.81 0H15l-1.609 1.152h-2.28c1.513.576 2.318 2.322 2.318 4.115 0 1.504-.842 2.798-2.03 3.72-1.16.897-1.379 1.272-1.379 2.037zm-7.482 7.03c0 2.078 1.96 3.809 4.674 3.809 3.815 0 5.145-1.624 5.145-3.704 0-.252-.03-.495-.087-.735-.26-1.024-1.095-1.598-2.28-2.412a66.26 66.26 0 0 1-.548-.38 5.92 5.92 0 0 0-1.758-.284c-2.714-.03-5.146 1.667-5.146 3.705zM7.925 9.67C6.104 9.615 4.373 7.618 4.06 5.208c-.315-2.41.907-4.255 2.728-4.2 1.82.055 3.553 1.987 3.867 4.399.314 2.41-.907 4.319-2.729 4.263z" fill="currentColor"/><path d="M17 7h2v3h3v2h-3v3h-2v-3h-3v-2h3V7z" fill="currentColor"/></svg>