<svg viewBox="0 0 14 24" fill="none" xmlns="http://www.w3.org/2000/svg"><path fill-rule="evenodd" clip-rule="evenodd" d="M7 12c3.31 0 6-2.691 6-6 0-3.308-2.69-6-6-6S1 2.692 1 6c0 3.309 2.69 6 6 6zm0-8.483a2.487 2.487 0 0 1 2.484 2.484 2.487 2.487 0 0 1-2.485 2.484 2.488 2.488 0 0 1-2.484-2.484A2.487 2.487 0 0 1 7 3.517z" fill="currentColor"/><path d="M13.146 16.233a11.975 11.975 0 0 1-3.623 1.438l3.487 3.34a1.698 1.698 0 0 1 0 2.476 1.883 1.883 0 0 1-2.583 0L7 20.204l-3.426 3.283a1.867 1.867 0 0 1-1.293.512c-.467 0-.934-.17-1.292-.512a1.7 1.7 0 0 1 0-2.476l3.487-3.34a11.993 11.993 0 0 1-3.622-1.438c-.854-.515-1.11-1.595-.572-2.414.536-.819 1.664-1.066 2.52-.55 2.553 1.539 5.842 1.54 8.397 0 .855-.516 1.983-.269 2.52.55.538.818.281 1.899-.572 2.414z" fill="currentColor"/></svg>