<svg viewBox="0 0 24 24" fill="none" xmlns="http://www.w3.org/2000/svg">
<path fill-rule="evenodd" clip-rule="evenodd" d="M23.2186 0.811056C23.6772 2.64263 23.9311 4.61557 23.9311 6.677C23.9311 16.2348 18.5741 23.9826 11.9656 23.9826C5.357 23.9826 0 16.2348 0 6.677C0 4.61557 0.253848 2.64272 0.712492 0.811056C0.781314 0.534755 0.963087 0.300838 1.21043 0.165986C1.35758 0.0862938 1.52092 0.045517 1.68467 0.045517C1.79645 0.045517 1.90824 0.0642134 2.01552 0.102875C4.34127 0.931526 7.92959 1.46459 11.9656 1.46459C16.0016 1.46459 19.5899 0.931526 21.9157 0.102875C22.0235 0.0642134 22.1359 0.045517 22.2478 0.045517C22.4116 0.045517 22.5742 0.0858708 22.7207 0.16531C22.9687 0.300161 23.1499 0.534163 23.2186 0.811056ZM7.06219 7.27647C5.80805 7.27647 4.79157 7.97095 4.79157 8.82786C4.79157 9.68459 5.80805 10.3792 7.06219 10.3792C7.18992 10.3792 7.31518 10.3803 7.43716 10.3814C8.51276 10.3909 9.33272 10.3981 9.33272 9.62859C9.33272 8.77168 8.31625 7.27647 7.06219 7.27647ZM11.9656 20.7109C9.26323 20.7109 7.07253 18.4892 7.07253 15.7488C7.07253 15.3917 7.12 15.0483 7.19708 14.7153C7.21827 14.6243 7.28517 14.5506 7.3731 14.5205C7.46119 14.4912 7.55812 14.5101 7.62886 14.57C8.561 15.3643 10.1467 15.8921 11.9655 15.8921C13.7844 15.8921 15.3701 15.3643 16.3021 14.57C16.373 14.5094 16.4699 14.4906 16.5579 14.5205C16.6459 14.5499 16.7127 14.6243 16.7339 14.7153C16.811 15.0483 16.8586 15.3917 16.8586 15.7488C16.8586 18.4892 14.6679 20.7109 11.9656 20.7109ZM16.869 7.27647C15.6148 7.27647 14.5984 8.77168 14.5984 9.62859C14.5984 10.3981 15.4183 10.3909 16.494 10.3814C16.616 10.3803 16.7412 10.3792 16.869 10.3792C18.123 10.3792 19.1395 9.68459 19.1395 8.82786C19.1395 7.97095 18.123 7.27647 16.869 7.27647Z" fill="currentColor"/>
</svg>
