<svg viewBox="0 0 17 17" fill="none" xmlns="http://www.w3.org/2000/svg">
<path fill-rule="evenodd" clip-rule="evenodd" d="M16.4465 0.574484C16.7714 1.87185 16.9512 3.26935 16.9512 4.72953C16.9512 11.4996 13.1567 16.9876 8.47566 16.9876C3.79454 16.9876 0 11.4996 0 4.72953C0 3.26935 0.179809 1.87191 0.504682 0.574484C0.553431 0.37877 0.682186 0.213079 0.857386 0.117559C0.96162 0.0611102 1.07732 0.0322266 1.19331 0.0322266C1.27249 0.0322266 1.35167 0.0454699 1.42766 0.0728554C3.07507 0.659816 5.6168 1.0374 8.47566 1.0374C11.3345 1.0374 13.8762 0.659816 15.5236 0.0728554C15.6 0.0454699 15.6796 0.0322266 15.7588 0.0322266C15.8749 0.0322266 15.99 0.0608106 16.0938 0.11708C16.2695 0.212599 16.3978 0.378351 16.4465 0.574484ZM5.00238 5.15415C4.11404 5.15415 3.39403 5.64608 3.39403 6.25305C3.39403 6.85991 4.11404 7.35195 5.00238 7.35195C5.09285 7.35195 5.18157 7.35273 5.26796 7.35349H5.26797H5.26799C6.02987 7.36018 6.61068 7.36528 6.61068 6.82024C6.61068 6.21326 5.89067 5.15415 5.00238 5.15415ZM8.47566 14.6702C6.56146 14.6702 5.00971 13.0965 5.00971 11.1554C5.00971 10.9025 5.04333 10.6592 5.09793 10.4233C5.11294 10.3588 5.16033 10.3066 5.22261 10.2853C5.28501 10.2646 5.35367 10.2779 5.40378 10.3204C6.06404 10.8831 7.18721 11.2569 8.4756 11.2569C9.76398 11.2569 10.8871 10.8831 11.5474 10.3204C11.5975 10.2775 11.6662 10.2642 11.7285 10.2853C11.7909 10.3062 11.8382 10.3588 11.8532 10.4233C11.9078 10.6592 11.9415 10.9025 11.9415 11.1554C11.9415 13.0965 10.3897 14.6702 8.47566 14.6702ZM11.9489 5.15415C11.0605 5.15415 10.3405 6.21326 10.3405 6.82024C10.3405 7.36528 10.9213 7.36018 11.6832 7.35349C11.7697 7.35273 11.8584 7.35195 11.9489 7.35195C12.8372 7.35195 13.5572 6.85991 13.5572 6.25305C13.5572 5.64608 12.8372 5.15415 11.9489 5.15415Z" fill="currentColor"/>
</svg>
