<svg viewBox="0 0 18 18" fill="none" xmlns="http://www.w3.org/2000/svg">
<path fill-rule="evenodd" clip-rule="evenodd" d="M16.2 11.7L16.2 9.9V9C16.2 8.46 15.75 8.1 15.3 8.1H9.9V5.13C10.44 4.86 10.8 4.23 10.8 3.6C10.8 2.61 9 0 9 0C9 0 7.2 2.61 7.2 3.6C7.2 4.23 7.56 4.86 8.1 5.13V8.1H2.7C2.16 8.1 1.8 8.46 1.8 9V9.9V11.7V11.7128V16.2H0.45C0.18 16.2 0 16.38 0 16.65V17.55C0 17.82 0.18 18 0.45 18H17.55C17.82 18 18 17.82 18 17.55V16.65C18 16.38 17.82 16.2 17.55 16.2H16.2L16.2 11.9506L16.2 11.7Z" fill="currentColor"/>
<path fill-rule="evenodd" clip-rule="evenodd" d="M12.8572 8.35715V6.47144C12.4715 6.30001 12.2144 5.90001 12.2144 5.50001C12.2144 4.87144 13.5001 3.21429 13.5001 3.21429C13.5001 3.21429 14.7858 4.87144 14.7858 5.50001C14.7858 5.90001 14.5286 6.30001 14.1429 6.47144V8.35715H12.8572Z" fill="currentColor"/>
<path fill-rule="evenodd" clip-rule="evenodd" d="M3.85721 8.35715V6.47144C3.4715 6.30001 3.21436 5.90001 3.21436 5.50001C3.21436 4.87144 4.50007 3.21429 4.50007 3.21429C4.50007 3.21429 5.78578 4.87144 5.78578 5.50001C5.78578 5.90001 5.52864 6.30001 5.14293 6.47144V8.35715H3.85721Z" fill="currentColor"/>
</svg>
