<svg viewBox="0 0 61 53" fill="none" xmlns="http://www.w3.org/2000/svg"><path fill-rule="evenodd" clip-rule="evenodd" d="M55.87 50.573h3.867c.632 0 1.184.548 1.263 1.253 0 .626-.552 1.174-1.184 1.174H1.184C.552 53 0 52.452 0 51.826c0-.627.552-1.175 1.184-1.175H4.26V1.174C4.261.548 4.814 0 5.445 0h49.242c.631 0 1.184.548 1.184 1.174v49.4zm-40.324-40.24H6.629v14.719c9.233-2.584 9.075-12.213 8.917-14.718zm26.91 4.15c-2.29-.235-4.104-1.957-4.578-4.15h4.42c-.08.862-.08 2.35.157 4.15zm-20.202-4.15h-4.34c0 .155.002.33.005.522.012.883.03 2.15-.163 3.628 2.21-.313 4.024-1.957 4.498-4.15zm-4.972 6.499c2.604-.079 4.972-1.488 6.234-3.523 1.342 2.114 3.788 3.6 6.471 3.6 2.683 0 5.13-1.408 6.471-3.6a7.804 7.804 0 0 0 6.313 3.6c.552 2.35 1.736 4.855 3.709 6.89-3.157 10.804-4.261 23.095-4.577 26.852H18.15c-.316-3.757-1.42-16.048-4.577-26.93 2.052-2.036 3.157-4.54 3.709-6.89zm12.784-2.349c2.604 0 4.735-1.8 5.208-4.15H24.858c.552 2.35 2.683 4.15 5.208 4.15zm14.599-4.15h8.917v14.719c-9.233-2.584-9.154-12.213-8.917-14.718zm8.838-7.984H6.63v5.636h46.874V2.35zM6.63 50.573V27.48c1.973-.47 3.55-1.175 4.892-2.114 2.841 10.177 3.946 21.529 4.183 25.208H6.629zM48.61 25.365c-2.841 10.255-3.867 21.529-4.183 25.208h9.075V27.48a16.437 16.437 0 0 1-4.892-2.114z" fill="currentColor"/></svg>