<svg viewBox="0 0 52 66" fill="none" xmlns="http://www.w3.org/2000/svg"><path d="M21.545 29.498a.865.865 0 0 0 1.227.026.873.873 0 0 0 .027-1.232 4.12 4.12 0 0 0-3.006-1.289 4.123 4.123 0 0 0-3.007 1.289c-.332.347-.32.9.026 1.232a.865.865 0 0 0 1.228-.026 2.405 2.405 0 0 1 1.753-.752c.667 0 1.29.268 1.752.752z" fill="currentColor"/><path fill-rule="evenodd" clip-rule="evenodd" d="M26.243 39.598c-2.625 0-4.762-2.143-4.762-4.776 0-2.635 2.136-4.778 4.762-4.778 2.625 0 4.761 2.143 4.761 4.778 0 2.633-2.136 4.776-4.76 4.776zm0-7.811a3.033 3.033 0 0 0-3.025 3.035 3.032 3.032 0 0 0 3.025 3.033 3.032 3.032 0 0 0 3.024-3.033 3.033 3.033 0 0 0-3.024-3.035z" fill="currentColor"/><path d="M26.334 43.193c-3.61 0-6.753-1.754-7.644-4.266a.869.869 0 1 1 1.637-.583c.638 1.8 3.165 3.106 6.007 3.106 2.944 0 5.553-1.416 6.067-3.294a.868.868 0 0 1 1.068-.61.872.872 0 0 1 .608 1.072c-.727 2.651-3.984 4.575-7.743 4.575zM30.372 29.766a.874.874 0 0 1-.628-1.474 4.12 4.12 0 0 1 3.007-1.289c1.147 0 2.215.458 3.007 1.29.33.348.319.9-.028 1.232a.866.866 0 0 1-1.228-.028 2.394 2.394 0 0 0-1.751-.75c-.668 0-1.29.267-1.751.75a.866.866 0 0 1-.628.27z" fill="currentColor"/><path fill-rule="evenodd" clip-rule="evenodd" d="M11.197 35.612a3.005 3.005 0 0 1-1.875-2.784v-3.067a6.117 6.117 0 0 1-1.803-11.524 7.62 7.62 0 0 1-1.217-4.134c0-4.214 3.417-7.642 7.617-7.642h.103A7.624 7.624 0 0 1 21.32 1a.86.86 0 0 1 .327.064.856.856 0 0 1 .326-.064c1.56 0 3.08.484 4.354 1.375A7.6 7.6 0 0 1 30.68 1a7.622 7.622 0 0 1 7.298 5.462l.104-.001c4.2 0 7.617 3.428 7.617 7.642a7.62 7.62 0 0 1-1.217 4.134 6.117 6.117 0 0 1-1.803 11.524v3.067a3.005 3.005 0 0 1-1.875 2.784h5.597c2.536 0 4.599 2.07 4.599 4.615a4.637 4.637 0 0 1-2.334 4.01 4.643 4.643 0 0 1 .827 4.57 4.624 4.624 0 0 1-3.561 2.967 4.646 4.646 0 0 1-.78 4.578 4.617 4.617 0 0 1-4.358 1.566 4.636 4.636 0 0 1-2.294 4.034 4.6 4.6 0 0 1-4.628-.024c-.544 1.524-1.87 2.71-3.532 3.003a4.49 4.49 0 0 1-.789.069 4.628 4.628 0 0 1-3.55-1.68 4.618 4.618 0 0 1-4.343 1.61c-1.66-.293-2.986-1.478-3.53-3.002a4.606 4.606 0 0 1-4.628.023c-1.46-.846-2.302-2.416-2.294-4.033a4.612 4.612 0 0 1-4.358-1.567 4.648 4.648 0 0 1-.78-4.577 4.624 4.624 0 0 1-3.56-2.968 4.644 4.644 0 0 1 .827-4.569A4.637 4.637 0 0 1 1 40.227c0-2.545 2.064-4.615 4.6-4.615h5.597zm25.605-14.355a.873.873 0 0 1 .828 1.134 4.39 4.39 0 0 0-.203 1.323c0 2.41 1.954 4.37 4.356 4.37 2.401 0 4.356-1.96 4.356-4.37a4.361 4.361 0 0 0-3.275-4.229.872.872 0 0 1-.428-1.43 5.891 5.891 0 0 0 1.526-3.952c0-3.253-2.638-5.9-5.88-5.9-.205 0-.427.014-.679.042a.867.867 0 0 1-.95-.704 5.883 5.883 0 0 0-5.773-4.798 5.869 5.869 0 0 0-3.793 1.396.866.866 0 0 1-1.121 0 5.867 5.867 0 0 0-3.793-1.396.856.856 0 0 1-.326-.064.86.86 0 0 1-.326.064 5.885 5.885 0 0 0-5.775 4.799.869.869 0 0 1-.95.703 6.116 6.116 0 0 0-.677-.041c-3.242 0-5.88 2.646-5.88 5.9 0 1.458.542 2.863 1.525 3.952a.873.873 0 0 1-.428 1.43 4.361 4.361 0 0 0-3.275 4.228c0 2.41 1.954 4.37 4.357 4.37 2.401 0 4.356-1.96 4.356-4.37 0-.449-.069-.893-.204-1.323a.873.873 0 0 1 .256-.919c.26-.228.63-.279.942-.132a5.34 5.34 0 0 0 2.296.519c1.503 0 2.903-.61 3.94-1.714a.865.865 0 0 1 .96-.21c.732.299 1.5.45 2.283.45h1.906c.782 0 1.55-.151 2.284-.45a.867.867 0 0 1 .96.21 5.354 5.354 0 0 0 3.94 1.714c.794 0 1.567-.175 2.295-.52a.865.865 0 0 1 .37-.082zm-1.112 2.457a6.116 6.116 0 0 0 5.252 6.055v3.059a1.258 1.258 0 0 1-1.413 1.246.873.873 0 0 0-.977.791c-.548 6.482-6.06 11.56-12.551 11.56-5.903 0-10.998-4.2-12.284-9.837a.886.886 0 0 0-.111-.543c-.07-.387-.123-.78-.157-1.18a.873.873 0 0 0-.976-.79 1.258 1.258 0 0 1-1.414-1.246v-3.06a6.116 6.116 0 0 0 5.245-6.341c.51.115 1.031.174 1.56.174a7.054 7.054 0 0 0 4.79-1.853c.775.252 1.577.38 2.393.38h1.906a7.73 7.73 0 0 0 2.393-.38 7.056 7.056 0 0 0 4.79 1.853c.53 0 1.05-.059 1.56-.175-.004.096-.006.191-.006.287zm-23.574 13.64H5.6a2.871 2.871 0 0 0-2.863 2.873c0 1.42 1.057 2.64 2.459 2.84a.873.873 0 0 1 .287 1.632A2.886 2.886 0 0 0 4.14 48.21a2.867 2.867 0 0 0 3.277 1.826.873.873 0 0 1 .826 1.435 2.89 2.89 0 0 0-.064 3.76 2.866 2.866 0 0 0 3.703.59c.319-.2.73-.17 1.017.072a.873.873 0 0 1 .248.993 2.887 2.887 0 0 0 1.222 3.555 2.865 2.865 0 0 0 3.679-.716.868.868 0 0 1 1.552.567 2.88 2.88 0 0 0 2.36 2.922 2.87 2.87 0 0 0 3.215-1.936.868.868 0 0 1 1.65 0 2.867 2.867 0 0 0 3.214 1.936 2.879 2.879 0 0 0 2.36-2.922.872.872 0 0 1 .572-.848.863.863 0 0 1 .98.281 2.866 2.866 0 0 0 3.68.717 2.886 2.886 0 0 0 1.222-3.556.874.874 0 0 1 .247-.993.867.867 0 0 1 1.018-.072c1.201.75 2.793.498 3.703-.59a2.888 2.888 0 0 0-.064-3.76.874.874 0 0 1-.107-1.018.866.866 0 0 1 .932-.417 2.871 2.871 0 0 0 3.28-1.825 2.883 2.883 0 0 0-1.345-3.511.872.872 0 0 1 .287-1.633 2.87 2.87 0 0 0-.403-5.712h-6.516c-1.601 6.222-7.301 10.813-13.884 10.813-6.584 0-12.283-4.591-13.886-10.813z" fill="currentColor"/><path d="M21.545 29.498a.865.865 0 0 0 1.227.026.873.873 0 0 0 .027-1.232 4.12 4.12 0 0 0-3.006-1.289 4.123 4.123 0 0 0-3.007 1.289c-.332.347-.32.9.026 1.232a.865.865 0 0 0 1.228-.026 2.405 2.405 0 0 1 1.753-.752c.667 0 1.29.268 1.752.752z" stroke="currentColor" stroke-width=".3"/><path clip-rule="evenodd" d="M26.243 39.598c-2.625 0-4.762-2.143-4.762-4.776 0-2.635 2.136-4.778 4.762-4.778 2.625 0 4.761 2.143 4.761 4.778 0 2.633-2.136 4.776-4.76 4.776zm0-7.811a3.033 3.033 0 0 0-3.025 3.035 3.032 3.032 0 0 0 3.025 3.033 3.032 3.032 0 0 0 3.024-3.033 3.033 3.033 0 0 0-3.024-3.035z" stroke="currentColor" stroke-width=".3"/><path d="M26.334 43.193c-3.61 0-6.753-1.754-7.644-4.266a.869.869 0 1 1 1.637-.583c.638 1.8 3.165 3.106 6.007 3.106 2.944 0 5.553-1.416 6.067-3.294a.868.868 0 0 1 1.068-.61.872.872 0 0 1 .608 1.072c-.727 2.651-3.984 4.575-7.743 4.575zM30.372 29.766a.874.874 0 0 1-.628-1.474 4.12 4.12 0 0 1 3.007-1.289c1.147 0 2.215.458 3.007 1.29.33.348.319.9-.028 1.232a.866.866 0 0 1-1.228-.028 2.394 2.394 0 0 0-1.751-.75c-.668 0-1.29.267-1.751.75a.866.866 0 0 1-.628.27z" stroke="currentColor" stroke-width=".3"/><path clip-rule="evenodd" d="M11.197 35.612a3.005 3.005 0 0 1-1.875-2.784v-3.067a6.117 6.117 0 0 1-1.803-11.524 7.62 7.62 0 0 1-1.217-4.134c0-4.214 3.417-7.642 7.617-7.642h.103A7.624 7.624 0 0 1 21.32 1a.86.86 0 0 1 .327.064.856.856 0 0 1 .326-.064c1.56 0 3.08.484 4.354 1.375A7.6 7.6 0 0 1 30.68 1a7.622 7.622 0 0 1 7.298 5.462l.104-.001c4.2 0 7.617 3.428 7.617 7.642a7.62 7.62 0 0 1-1.217 4.134 6.117 6.117 0 0 1-1.803 11.524v3.067a3.005 3.005 0 0 1-1.875 2.784h5.597c2.536 0 4.599 2.07 4.599 4.615a4.637 4.637 0 0 1-2.334 4.01 4.643 4.643 0 0 1 .827 4.57 4.624 4.624 0 0 1-3.561 2.967 4.646 4.646 0 0 1-.78 4.578 4.617 4.617 0 0 1-4.358 1.566 4.636 4.636 0 0 1-2.294 4.034 4.6 4.6 0 0 1-4.628-.024c-.544 1.524-1.87 2.71-3.532 3.003a4.49 4.49 0 0 1-.789.069 4.628 4.628 0 0 1-3.55-1.68 4.618 4.618 0 0 1-4.343 1.61c-1.66-.293-2.986-1.478-3.53-3.002a4.606 4.606 0 0 1-4.628.023c-1.46-.846-2.302-2.416-2.294-4.033a4.612 4.612 0 0 1-4.358-1.567 4.648 4.648 0 0 1-.78-4.577 4.624 4.624 0 0 1-3.56-2.968 4.644 4.644 0 0 1 .827-4.569A4.637 4.637 0 0 1 1 40.227c0-2.545 2.064-4.615 4.6-4.615h5.597zm25.605-14.355a.873.873 0 0 1 .828 1.134 4.39 4.39 0 0 0-.203 1.323c0 2.41 1.954 4.37 4.356 4.37 2.401 0 4.356-1.96 4.356-4.37a4.361 4.361 0 0 0-3.275-4.229.872.872 0 0 1-.428-1.43 5.891 5.891 0 0 0 1.526-3.952c0-3.253-2.638-5.9-5.88-5.9-.205 0-.427.014-.679.042a.867.867 0 0 1-.95-.704 5.883 5.883 0 0 0-5.773-4.798 5.869 5.869 0 0 0-3.793 1.396.866.866 0 0 1-1.121 0 5.867 5.867 0 0 0-3.793-1.396.856.856 0 0 1-.326-.064.86.86 0 0 1-.326.064 5.885 5.885 0 0 0-5.775 4.799.869.869 0 0 1-.95.703 6.116 6.116 0 0 0-.677-.041c-3.242 0-5.88 2.646-5.88 5.9 0 1.458.542 2.863 1.525 3.952a.873.873 0 0 1-.428 1.43 4.361 4.361 0 0 0-3.275 4.228c0 2.41 1.954 4.37 4.357 4.37 2.401 0 4.356-1.96 4.356-4.37 0-.449-.069-.893-.204-1.323a.873.873 0 0 1 .256-.919c.26-.228.63-.279.942-.132a5.34 5.34 0 0 0 2.296.519c1.503 0 2.903-.61 3.94-1.714a.865.865 0 0 1 .96-.21c.732.299 1.5.45 2.283.45h1.906c.782 0 1.55-.151 2.284-.45a.867.867 0 0 1 .96.21 5.354 5.354 0 0 0 3.94 1.714c.794 0 1.567-.175 2.295-.52a.865.865 0 0 1 .37-.082zm-1.112 2.457a6.116 6.116 0 0 0 5.252 6.055v3.059a1.258 1.258 0 0 1-1.413 1.246.873.873 0 0 0-.977.791c-.548 6.482-6.06 11.56-12.551 11.56-5.903 0-10.998-4.2-12.284-9.837a.886.886 0 0 0-.111-.543c-.07-.387-.123-.78-.157-1.18a.873.873 0 0 0-.976-.79 1.258 1.258 0 0 1-1.414-1.246v-3.06a6.116 6.116 0 0 0 5.245-6.341c.51.115 1.031.174 1.56.174a7.054 7.054 0 0 0 4.79-1.853c.775.252 1.577.38 2.393.38h1.906a7.73 7.73 0 0 0 2.393-.38 7.056 7.056 0 0 0 4.79 1.853c.53 0 1.05-.059 1.56-.175-.004.096-.006.191-.006.287zm-23.574 13.64H5.6a2.871 2.871 0 0 0-2.863 2.873c0 1.42 1.057 2.64 2.459 2.84a.873.873 0 0 1 .287 1.632A2.886 2.886 0 0 0 4.14 48.21a2.867 2.867 0 0 0 3.277 1.826.873.873 0 0 1 .826 1.435 2.89 2.89 0 0 0-.064 3.76 2.866 2.866 0 0 0 3.703.59c.319-.2.73-.17 1.017.072a.873.873 0 0 1 .248.993 2.887 2.887 0 0 0 1.222 3.555 2.865 2.865 0 0 0 3.679-.716.868.868 0 0 1 1.552.567 2.88 2.88 0 0 0 2.36 2.922 2.87 2.87 0 0 0 3.215-1.936.868.868 0 0 1 1.65 0 2.867 2.867 0 0 0 3.214 1.936 2.879 2.879 0 0 0 2.36-2.922.872.872 0 0 1 .572-.848.863.863 0 0 1 .98.281 2.866 2.866 0 0 0 3.68.717 2.886 2.886 0 0 0 1.222-3.556.874.874 0 0 1 .247-.993.867.867 0 0 1 1.018-.072c1.201.75 2.793.498 3.703-.59a2.888 2.888 0 0 0-.064-3.76.874.874 0 0 1-.107-1.018.866.866 0 0 1 .932-.417 2.871 2.871 0 0 0 3.28-1.825 2.883 2.883 0 0 0-1.345-3.511.872.872 0 0 1 .287-1.633 2.87 2.87 0 0 0-.403-5.712h-6.516c-1.601 6.222-7.301 10.813-13.884 10.813-6.584 0-12.283-4.591-13.886-10.813z" stroke="currentColor" stroke-width=".3"/></svg>