<svg viewBox="0 0 60 60" fill="none" xmlns="http://www.w3.org/2000/svg"><path fill-rule="evenodd" clip-rule="evenodd" d="M8.732 25h2.495c1.372 0 2.62-.5 3.492-1.5l.25-.25.25.25c.997 1 2.245 1.5 3.492 1.5h2.495c1.372 0 2.62-.5 3.492-1.5l.25-.25.25.25c.997 1 2.245 1.5 3.492 1.5v10h2.495V25c1.372 0 2.62-.5 3.493-1.5l.25-.25.249.25c.998 1 2.245 1.5 3.492 1.5h2.495c1.372 0 2.62-.5 3.493-1.5l.25-.25.249.25c.998 1 2.245 1.5 3.493 1.5h2.494c1.373 0 2.62-.5 3.493-1.5.998-1 1.497-2.25 1.497-3.5 0-.375-.25-.75-.499-1L31.185 1.875V0H28.69v1.875L4.241 19c-.25.25-.499.625-.499 1 0 1.375.5 2.625 1.497 3.5.873 1 2.12 1.5 3.493 1.5zm8.732 21.25H5.863L2.495 36v-4.75H0v5.375L3.617 47.5.125 58.375C0 58.5 0 58.625 0 58.75V60h2.495v-1l3.368-10.25h6.611V60h2.495V48.75h2.495v-2.5zm42.287-9.625L56.258 47.5l3.617 10.875c0 .063.031.125.063.188a.445.445 0 0 1 .062.187V60h-2.495v-1l-3.492-10.25H47.4V60h-2.495V48.75h-2.494v-2.5h11.6L57.38 36v-4.75h2.495v5c0 .125 0 .25-.124.375zM42.41 40h-2.494c-4.865 0-8.732 3.875-8.732 8.75s3.867 8.75 8.732 8.75V60c-4.366 0-8.109-2.5-9.98-6.125C28.067 57.5 24.324 60 19.958 60v-2.5c4.865 0 8.732-3.875 8.732-8.75S24.823 40 19.958 40h-2.495v-2.5h24.948V40zm-15.467 0c1.247 1 2.245 2.25 2.994 3.624A13.64 13.64 0 0 1 32.807 40h-5.863zm26.57-19.375L29.938 4 6.362 20.625c.125.375.25.75.624 1.125.498.5 1.122.75 1.746.75h2.495c.623 0 1.247-.25 1.746-.75.499-.5.748-1.125.748-1.75 0-.75.5-1.25 1.248-1.25s1.247.5 1.247 1.25c0 .625.25 1.25.749 1.75s1.122.75 1.746.75h2.495c.624 0 1.247-.25 1.746-.75.5-.5.749-1.125.749-1.75 0-.75.499-1.25 1.247-1.25.748 0 1.247.5 1.247 1.25 0 .625.25 1.25.749 1.75s1.123.75 1.746.75h2.495c.624 0 1.247-.25 1.746-.75.5-.5.749-1.125.749-1.75 0-.75.499-1.25 1.247-1.25.749 0 1.248.5 1.248 1.25 0 .625.25 1.25.748 1.75.5.5 1.123.75 1.746.75h2.495c.624 0 1.248-.25 1.747-.75.499-.5.748-1.125.748-1.75 0-.75.499-1.25 1.248-1.25.748 0 1.247.5 1.247 1.25 0 .625.25 1.25.748 1.75.5.5 1.123.75 1.747.75h2.495c.623 0 1.247-.25 1.746-.75.25-.25.499-.625.623-1.125z" fill="currentColor"/></svg>