<svg viewBox="0 0 51 72" fill="none" xmlns="http://www.w3.org/2000/svg"><path d="M16 0c0 5.014-4 4.836-4 4.836 3.66.781 3.979 5.655 4 6.883-.003.18 0 .281 0 .281s.003-.102 0-.28c.022-1.229.34-6.103 4-6.884 0 0-4 .178-4-4.836z" fill="currentColor"/><path fill-rule="evenodd" clip-rule="evenodd" d="M22.039 20.992c2.155.113 4.036-.94 4.473-2.42a.937.937 0 0 0 .068-.28l.002-.032a2.327 2.327 0 0 0 .026-.321l.66-8.175 5.426 1.562a.944.944 0 0 0 1.205-.875L34 6.9a.94.94 0 0 0-.666-.924l-6.345-1.936a.945.945 0 0 0-1.216.823l-.853 10.564c-.656-.368-1.463-.606-2.35-.653-2.372-.125-4.414 1.166-4.56 2.883-.147 1.716 1.657 3.209 4.03 3.334zm5.384-13.14l4.625 1.333.046-1.621-4.536-1.384-.135 1.673zM13.516 72a.952.952 0 0 1-.947-.843c-.747-6.57-1.816-13.704-2.642-16.995-1.16 3.568-3.342 11.141-4.754 16.191a.954.954 0 0 1-1.068.684.95.95 0 0 1-.805-.978l.558-13.294c-.306-6.021 2.168-15.403 2.844-17.834l-4.953-4.424a.952.952 0 0 1-.31-.593L.008 22.063a.955.955 0 0 1 1.879-.322c1.154 5.1 2.517 8.633 2.848 9.456l4.214 3.895 5.58 1.76a.954.954 0 0 1 .416.24l5.15 5.055a.956.956 0 0 1 .182.25l2.61 5.167 8.773-10.365a.956.956 0 0 1 .611-.33l3.976-.5 13.15-12.116a.958.958 0 0 1 1.438 1.246L40.64 40.42l4.714 19.412a.959.959 0 0 1-1.003 1.182l-3.2-.242.214 9.847a.958.958 0 0 1-.94 1.115.957.957 0 0 1-.918-.644l-3.153-9.082-1.962 9.234a.957.957 0 0 1-1.891-.159l-.468-11.001-1.858-.14a.957.957 0 0 1-.884-.99l.467-12.866-5.762 3.847a.948.948 0 0 1-.952 1.011.96.96 0 0 1-.42-.096l-.139.094a.954.954 0 0 1-1.245-.16.96.96 0 0 1-.021-1.25l-5.36-5.287-.367-.267.274 11.763a.942.942 0 0 1-.135.51.993.993 0 0 1-.003.076l-1.162 14.798a.953.953 0 0 1-.934.876h-.018zm.032-29.588l.311 13.352a.945.945 0 0 0-.132.415l-.45 5.732-.066-.435c-1.514-10.029-2.294-10.383-2.924-10.668a.997.997 0 0 0-.816.006c-.402.187-.787.367-3.924 11.225l.22-5.24v-.09c-.346-6.49 2.899-17.713 2.932-17.826a.948.948 0 0 0-.28-.97l-5.127-4.58-.121-1.007c.032.043.069.082.109.12l4.526 4.182a.951.951 0 0 0 .361.21l5.6 1.765 4.874 4.786.929 1.84-2.416-2.383a.897.897 0 0 0-.107-.092l-2.068-1.506a.959.959 0 0 0-1.334.205.946.946 0 0 0-.097.959zm22.454 16.047a.957.957 0 0 0-1.01.756l-.898 4.233-.183-4.3a.957.957 0 0 0-.884-.914l-1.789-.135.502-13.815a.955.955 0 1 0-1.487-.832l-3.169 2.116 5.793-6.844 3.91-.49a.956.956 0 0 0 .53-.246l7.197-6.632-5.693 8.334a.957.957 0 0 0-.14.767l4.504 18.545-2.939-.223a.956.956 0 0 0-1.029.977l.108 4.967-1.938-5.581a.958.958 0 0 0-.83-.64l-.555-.044z" fill="currentColor"/><path fill-rule="evenodd" clip-rule="evenodd" d="M14 35a5 5 0 0 1-4.992-4.731 4.964 4.964 0 0 1 1.27-3.608 4.963 4.963 0 0 1 3.452-1.653c2.771-.154 5.114 1.981 5.262 4.725a4.967 4.967 0 0 1-1.27 3.607A4.965 4.965 0 0 1 14 35zm0-8.022a3.016 3.016 0 0 0-3.01 3.185 3.018 3.018 0 0 0 3.173 2.855 2.99 2.99 0 0 0 2.08-.996c.539-.601.811-1.376.768-2.183a3.02 3.02 0 0 0-3.01-2.86z" fill="currentColor"/><path d="M34 17.431s4 .166 4-4.431c0 4.597 4 4.431 4 4.431-3.661.718-3.978 5.188-4 6.312-.022-1.124-.34-5.594-4-6.312z" fill="currentColor"/><path d="M38 24s.003-.093 0-.257c-.003.164 0 .257 0 .257z" fill="currentColor"/><path fill-rule="evenodd" clip-rule="evenodd" d="M32.998 35a5 5 0 0 1-4.99-4.732 4.965 4.965 0 0 1 1.27-3.607 4.963 4.963 0 0 1 3.452-1.654 5.001 5.001 0 0 1 5.263 4.725 4.964 4.964 0 0 1-1.27 3.607A4.966 4.966 0 0 1 32.998 35zM33 26.977a2.989 2.989 0 0 0-2.244 1 3.006 3.006 0 0 0-.768 2.185 3.018 3.018 0 0 0 3.174 2.856 2.991 2.991 0 0 0 2.08-.997c.539-.6.812-1.376.768-2.183a3.02 3.02 0 0 0-3.01-2.86z" fill="currentColor"/></svg>