<svg viewBox="0 0 43 60" fill="none" xmlns="http://www.w3.org/2000/svg"><path fill-rule="evenodd" clip-rule="evenodd" d="M20.605 9.855c-1.424-.37-2.466-1.532-2.466-2.903 0-1.233 1.799-4.9 2.572-6.419a.975.975 0 0 1 1.738 0c.773 1.52 2.573 5.186 2.573 6.42 0 1.37-1.042 2.53-2.466 2.902v14.882h6.68V17.21c-1.073-.39-1.832-1.326-1.832-2.417 0-.989 1.298-3.685 2.071-5.204a.975.975 0 0 1 1.738 0c.773 1.519 2.07 4.216 2.07 5.204 0 1.179-.885 2.178-2.097 2.5v7.443h3.847c4.393 0 7.967 3.579 7.967 7.978v26.308c0 .54-.436.977-.975.977H.975A.976.976 0 0 1 0 59.023V32.715c0-4.4 3.574-7.978 7.967-7.978h3.092v-9.26c-1.126-.358-1.934-1.315-1.934-2.436 0-.976 1.278-3.634 2.04-5.13a.974.974 0 0 1 1.738 0c.762 1.496 2.041 4.154 2.041 5.13 0 1.122-.808 2.078-1.935 2.435v9.26h7.596V9.856zm.975-6.658c-.8 1.704-1.471 3.324-1.49 3.76 0 .577.682 1.068 1.49 1.068.808 0 1.491-.491 1.491-1.073-.019-.432-.69-2.051-1.49-3.755zm-9.546 7.397c-.52 1.133-.932 2.15-.96 2.465.001.281.395.613.96.613.566 0 .96-.332.96-.63-.027-.304-.44-1.316-.96-2.448zm18.31 1.678c-.536 1.166-.963 2.216-.99 2.539 0 .293.407.639.99.639s.99-.346.99-.656c-.027-.312-.454-1.358-.99-2.522zM1.95 58.047h39.1v-4.012H1.95v4.012zm0-5.965V35.784c.12.051.25.08.389.08h4.56c.39 0 .705.317.705.706v6.353a3.52 3.52 0 0 0 3.513 3.518 3.52 3.52 0 0 0 3.514-3.518v-7.942c0-.397.29-.746.633-.764a.686.686 0 0 1 .498.183c.136.128.21.301.21.487v1.533c0 1.507 1.135 2.795 2.583 2.933a2.866 2.866 0 0 0 3.14-2.851v-.584c0-.03.024-.054.053-.054h4.763a1 1 0 0 1 1 1 4.818 4.818 0 0 0 4.809 4.817c2.652 0 4.81-2.161 4.81-4.816v-.855c0-.08.065-.146.146-.146h3.774v16.218H1.95zM37.276 33.91h3.774v-1.196c0-3.323-2.7-6.025-6.017-6.025H7.967c-3.318 0-6.017 2.702-6.017 6.025v1.276a.97.97 0 0 1 .389-.08h4.56a2.66 2.66 0 0 1 2.656 2.659v6.353c0 .863.7 1.565 1.563 1.565.861 0 1.562-.702 1.562-1.565v-7.942c0-1.45 1.09-2.642 2.482-2.715a2.598 2.598 0 0 1 1.943.717 2.64 2.64 0 0 1 .817 1.904v1.533c0 .511.36.945.818.989a.897.897 0 0 0 .706-.232.902.902 0 0 0 .298-.675v-.584c0-1.107.899-2.007 2.004-2.007h4.763a2.955 2.955 0 0 1 2.95 2.954 2.864 2.864 0 0 0 2.859 2.862 2.864 2.864 0 0 0 2.859-2.862v-.855a2.1 2.1 0 0 1 2.097-2.1z" fill="currentColor"/></svg>