<svg viewBox="0 0 50 54" fill="none" xmlns="http://www.w3.org/2000/svg"><path fill-rule="evenodd" clip-rule="evenodd" d="M37.778 54h.032c.655 0 1.212-.555 1.212-1.201V49.19l8.556-4.248v2.587c0 .646.557 1.201 1.212 1.201.655 0 1.211-.555 1.211-1.2v-4.134a1.872 1.872 0 0 0-1.041-1.678l-10.544-5.234-.013-.009a.986.986 0 0 0-.532-.14h-25.74c-.19 0-.334.044-.559.156l-10.53 5.227a1.876 1.876 0 0 0-1.041 1.679v4.132c0 .646.556 1.201 1.211 1.201s1.212-.555 1.212-1.2v-2.588l8.556 4.248v3.608c0 .646.557 1.201 1.212 1.201.655 0 1.211-.555 1.211-1.201v-3.16H36.6v3.16c0 .615.504 1.148 1.118 1.197a4 4 0 0 0 .06.003zm-.275-15.261H12.437l-8.56 4.25 8.56 4.248h25.005l8.623-4.248-8.562-4.25z" fill="currentColor"/><path d="M14.843.13a1.229 1.229 0 0 1 1.652.56l9.319 18.362c.157.368.15.775.003 1.064l-4.724 9.244h5.446c.672 0 1.24.564 1.24 1.217 0 .653-.568 1.217-1.24 1.217h-7.457c-.422 0-.828-.209-1.025-.547l-.006-.011-.008-.01c-.244-.338-.256-.785-.041-1.208l5.34-10.461-9.07-17.809c-.305-.602-.056-1.31.57-1.618z" fill="currentColor"/><path fill-rule="evenodd" clip-rule="evenodd" d="M22.223 4.794C22.223 2.17 24.395 0 27.021 0c2.627 0 4.798 2.17 4.798 4.794 0 2.625-2.171 4.795-4.798 4.795-2.626 0-4.798-2.17-4.798-4.795zm4.798-2.415a2.407 2.407 0 0 0-2.417 2.415 2.407 2.407 0 0 0 2.417 2.416 2.407 2.407 0 0 0 2.417-2.416 2.407 2.407 0 0 0-2.417-2.415z" fill="currentColor"/><path d="M38.843 2.356c.453-.45 1.274-.45 1.728 0 .452.449.452 1.262 0 1.71l-8.84 8.774v11.768l5.162 5.124c.452.448.452 1.261 0 1.71a1.189 1.189 0 0 1-.864.352c-.309 0-.61-.1-.864-.352l-5.517-5.475a1.331 1.331 0 0 1-.354-.855V12.336c0-.28.142-.586.364-.865l9.184-9.115z" fill="currentColor"/></svg>