<svg viewBox="0 0 54 54" fill="none" xmlns="http://www.w3.org/2000/svg"><path fill-rule="evenodd" clip-rule="evenodd" d="M49.435 23.27h3.526c.575 0 1.039.465 1.039 1.038v4.769c0 .573-.465 1.038-1.038 1.038H42.718a15.42 15.42 0 0 1-12.484 6.361h-6.831l-.936 2.207h.186a1.037 1.037 0 0 1 .99 1.349l-4.154 13.24a1.039 1.039 0 0 1-.99.728H5.376a1.04 1.04 0 0 1-.979-1.385l4.687-13.24c.146-.415.538-.692.978-.692h.668l3.552-8.568H1.038A1.038 1.038 0 0 1 0 29.077v-4.769c0-.573.464-1.038 1.038-1.038h3.527c2.218-9.15 9.827-15.988 18.996-17.377a3.812 3.812 0 0 1-.602-2.046A3.851 3.851 0 0 1 26.805 0a3.851 3.851 0 0 1 3.847 3.847c0 .734-.218 1.414-.576 1.998 9.33 1.261 17.112 8.154 19.359 17.425zM28.575 3.847c0-.976-.794-1.77-1.77-1.77-.975 0-1.77.794-1.77 1.77 0 .975.795 1.77 1.77 1.77.976 0 1.77-.795 1.77-1.77zM27 7.693c9.533 0 17.879 6.478 20.314 15.577H6.686C9.121 14.17 17.467 7.693 27 7.693zM6.845 51.923h10.892L21.24 40.76H10.796l-3.95 11.163zM30.235 34.4h-7.519a1.04 1.04 0 0 0-.956.633l-1.549 3.65h-7.233l3.552-8.567h12.027l-.073.228a1.297 1.297 0 0 1-1.237.898h-3.233a1.038 1.038 0 1 0 0 2.077h3.233c1.469 0 2.76-.939 3.212-2.335l.282-.868h9.304a13.35 13.35 0 0 1-9.81 4.284zm21.688-6.36v-2.692H2.077v2.691h49.846z" fill="currentColor"/></svg>