<svg viewBox="0 0 51 66" fill="none" xmlns="http://www.w3.org/2000/svg"><path fill-rule="evenodd" clip-rule="evenodd" d="M28.316 29.25a15.483 15.483 0 0 0 5.311 1.638l-5.235 5.229a1.05 1.05 0 0 0 .742 1.79h4.032c-.7.61-1.227 1.4-1.227 2.524 0 2.009 1.68 2.948 3.03 3.704h.001c1.331.745 1.958 1.172 1.958 1.876s-.627 1.131-1.957 1.876c-1.35.755-3.032 1.696-3.032 3.705 0 2.01 1.679 2.949 3.029 3.704l.003.002c1.33.745 1.957 1.172 1.957 1.875 0 .73-.734 1.193-1.944 1.87a1.047 1.047 0 0 0 .514 1.963c.174 0 .35-.043.512-.134 1.344-.752 3.018-1.688 3.018-3.699 0-2.01-1.68-2.95-3.031-3.705-1.331-.744-1.958-1.172-1.958-1.876 0-.703.627-1.131 1.957-1.876 1.35-.755 3.032-1.695 3.032-3.705s-1.681-2.95-3.032-3.705c-1.33-.745-1.957-1.172-1.957-1.875 0-.703.626-1.131 1.956-1.876l.13-.072c.234-.132.399-.34.48-.576h5.239a1.05 1.05 0 0 0 .648-1.873l-5.151-5.146C45.025 29.968 51 23.418 51 15.5 51.001 6.953 44.041 0 35.484 0c-5.187 0-9.91 2.504-12.807 6.743a15.436 15.436 0 0 0-7.159-1.75c-8.556 0-15.517 6.954-15.517 15.5 0 7.92 5.977 14.47 13.66 15.39L8.427 41.11a1.049 1.049 0 0 0 .742 1.79H13.2c-.7.61-1.226 1.4-1.226 2.523 0 2.01 1.68 2.95 3.03 3.705h.001c1.33.745 1.958 1.173 1.958 1.876 0 .704-.627 1.131-1.958 1.876-1.35.755-3.031 1.696-3.031 3.706s1.68 2.95 3.03 3.705c1.331.744 1.959 1.172 1.959 1.876 0 .703-.623 1.13-1.945 1.869a1.048 1.048 0 1 0 1.026 1.83c1.345-.753 3.018-1.69 3.018-3.7 0-2.009-1.68-2.949-3.03-3.704-1.331-.745-1.959-1.173-1.959-1.876 0-.704.628-1.132 1.958-1.877h.002c1.35-.756 3.03-1.696 3.03-3.705 0-2.01-1.681-2.95-3.032-3.705-1.33-.744-1.958-1.172-1.958-1.876 0-.702.627-1.13 1.956-1.873l.13-.074c.235-.132.4-.34.48-.576h5.24a1.05 1.05 0 0 0 .648-1.873l-5.152-5.145c4.534-.543 8.473-3.046 10.941-6.634zm-1.125-2.152a1.053 1.053 0 0 0-.255.43c-2.367 3.819-6.6 6.368-11.418 6.368C8.12 33.896 2.1 27.884 2.1 20.493c0-7.39 6.02-13.403 13.418-13.403 7.399 0 13.418 6.013 13.418 13.403 0 2.4-.635 4.655-1.745 6.605zm2.196.343a13.414 13.414 0 0 0 6.097 1.46c7.398 0 13.417-6.012 13.417-13.402S42.883 2.097 35.484 2.097c-4.449 0-8.502 2.13-11.014 5.742 3.97 2.81 6.565 7.435 6.565 12.654 0 2.497-.594 4.857-1.648 6.948zM19.334 40.804h-7.63l3.814-3.81 3.816 3.81zm12.335-4.994h7.63L35.484 32l-3.815 3.81z" fill="currentColor"/></svg>