<svg viewBox="0 0 58 61" fill="none" 
    xmlns="http://www.w3.org/2000/svg">
    <path fill-rule="evenodd" clip-rule="evenodd" d="M42.2563 7.55238C42.4489 7.74229 42.6992 7.83699 42.949 7.83699C43.2043 7.83699 43.46 7.73832 43.6531 7.54098C44.0357 7.15075 44.0308 6.52303 43.6422 6.13875C43.0053 5.50954 42.3254 4.91602 41.6209 4.37556C38.1159 1.68417 33.9241 0.171375 29.4984 0.000311675C28.9454 -0.0130759 28.4951 0.406401 28.4739 0.953307C28.4526 1.50071 28.8772 1.96134 29.4223 1.98217C33.4393 2.13687 37.2425 3.50934 40.4211 5.95133C41.061 6.4422 41.6782 6.98068 42.2563 7.55238ZM2.93439 41.9701C7.4367 50.5694 16.389 55.6864 25.677 55.6864C28.2728 55.6864 30.8949 55.2865 33.4531 54.4513C35.8817 58.6259 40.2939 61.0005 44.8474 61C46.9127 61 49.0071 60.5116 50.9578 59.4817C57.3881 56.0863 59.8686 48.0706 56.4881 41.6133L55.4902 39.7078C55.4704 39.67 55.4486 39.6341 55.4248 39.5999L54.3161 37.6072L51.086 31.6495C51.0908 31.6184 51.0943 31.5867 51.0962 31.5546C51.3796 26.8893 50.3778 22.2254 48.2009 18.0679C45.0223 11.9968 39.6792 7.53185 33.157 5.49595C26.6344 3.46005 19.7128 4.09719 13.6681 7.28938C1.18757 13.879 -3.62727 29.4369 2.93439 41.9701ZM49.0785 27.947C48.806 24.8342 47.9175 21.7887 46.4527 18.9911C43.5199 13.3887 38.5895 9.26876 32.571 7.39004C26.5509 5.51082 20.1655 6.09938 14.5869 9.04464C3.07115 15.1256 -1.37241 29.482 4.68268 41.0473C9.94384 51.0947 21.7878 55.9913 32.5068 52.6725L28.0991 44.2541C28.0538 44.1673 28.0225 44.0768 28.0045 43.9852C27.9198 43.8062 27.8379 43.6298 27.7585 43.4555C27.554 43.0072 27.4421 42.5318 27.4218 42.0575C26.8115 42.1521 26.2001 42.1982 25.5926 42.1982C21.1796 42.1982 16.9661 39.7592 14.8342 35.6864C13.3268 32.8071 13.0262 29.5107 13.987 26.4048C14.9487 23.2984 17.057 20.7538 19.9241 19.24C24.5707 16.7856 30.3278 17.6753 34.0363 21.2989C34.3497 20.7875 34.7927 20.3654 35.3334 20.0724C36.1436 19.6331 37.0758 19.5369 37.9591 19.8012C38.575 19.9858 39.1151 20.3306 39.5337 20.7984C39.6521 20.8845 39.7532 20.9984 39.8261 21.1368L39.9559 21.383C39.9732 21.4131 39.9901 21.4435 40.0065 21.4742C40.0188 21.497 40.0301 21.52 40.0404 21.5433L40.0504 21.5623C40.3401 21.1732 40.7159 20.8395 41.1685 20.5936C42.8432 19.6882 44.9416 20.3164 45.8446 21.9958C45.8658 22.0353 45.8841 22.0756 45.8995 22.1164C45.9093 22.132 45.9186 22.148 45.9276 22.1644L46.7981 23.7461L46.8082 23.7625L46.812 23.7688L46.8259 23.7929L46.8261 23.7932L46.8307 23.8011L49.0785 27.947ZM30.005 38.5564C29.1853 38.7439 28.4835 39.2214 28.0147 39.9171C23.5166 41.0429 18.7565 38.9184 16.5825 34.7636C15.32 32.3534 15.0687 29.5935 15.8735 26.9934C16.6778 24.3927 18.4429 22.2626 20.8429 20.9958C24.4448 19.093 28.8415 19.5902 31.9364 22.079C31.6168 22.1457 31.3015 22.2595 31 22.4233C30.1056 22.9087 29.5102 23.7367 29.2877 24.6589C28.4522 24.4198 27.5265 24.4943 26.7018 24.9406C26.1918 25.2178 25.7792 25.6063 25.4775 26.0601C24.8684 26.0514 24.2682 26.196 23.723 26.4845C22.8546 26.9422 22.2162 27.7122 21.9249 28.6528C21.6341 29.5939 21.7249 30.5925 22.1816 31.4637C22.6383 32.3359 23.4051 32.977 24.3417 33.269C24.7011 33.3816 25.0694 33.4371 25.4353 33.4371C26.0099 33.4371 26.5797 33.3001 27.1051 33.0297L30.005 38.5564ZM24.6424 28.2398C24.7247 28.1962 24.8095 28.1598 24.8962 28.1307C24.9163 28.642 25.0498 29.1562 25.308 29.6356L25.9434 30.8157L26.1843 31.2747C25.7921 31.4706 25.3472 31.5062 24.9277 31.3754C24.4952 31.2401 24.1407 30.9441 23.9294 30.5405C23.7186 30.1378 23.6761 29.6762 23.8109 29.2419C23.9452 28.8075 24.2405 28.452 24.6424 28.2398ZM31.9396 24.1681C32.6282 23.7937 33.4876 24.0299 33.8946 24.6927L40.585 37.3858C40.7623 37.7219 41.1044 37.9138 41.4589 37.9138C41.6144 37.9138 41.7729 37.8766 41.9196 37.7983C42.4019 37.5424 42.5856 36.942 42.3303 36.4581L35.7157 23.9082C35.7038 23.88 35.6904 23.8521 35.6756 23.8245L35.6606 23.7969C35.4854 23.4553 35.4494 23.0662 35.559 22.6974C35.6716 22.3181 35.9244 22.0057 36.272 21.8178C36.6176 21.6294 37.017 21.5877 37.3937 21.7017C37.7444 21.8067 38.0376 22.033 38.2271 22.3426L39.6771 25.0927C39.7075 25.159 39.7402 25.2246 39.7752 25.2897C39.79 25.3172 39.8059 25.3436 39.8228 25.3691L44.9189 35.0351C45.0962 35.3713 45.4378 35.5632 45.7923 35.5632C45.9483 35.5632 46.1063 35.526 46.2535 35.4476C46.7353 35.1913 46.919 34.5913 46.6642 34.1069L41.4522 24.221C41.1579 23.5259 41.4343 22.7043 42.1066 22.339C42.8225 21.9512 43.7206 22.2199 44.1067 22.9384C44.112 22.9483 44.1175 22.958 44.123 22.9676C44.1287 22.9773 44.1345 22.9868 44.1404 22.9962C44.1568 23.0395 44.1766 23.0822 44.1996 23.1238L45.1599 24.8692L45.1708 24.8891L45.1767 24.8994L52.5876 38.5671L53.7414 40.6298L53.8184 40.7776L53.8263 40.7923L53.8329 40.8042L54.7398 42.5361C57.6143 48.0255 55.5051 54.8397 50.039 57.726C44.5724 60.6118 37.7866 58.495 34.9126 53.0056L30.6083 44.7844L30.6035 44.775C30.2022 43.9998 29.8586 43.2977 29.5542 42.6295C29.3271 42.1317 29.3454 41.5481 29.6021 41.1058C29.7502 40.8509 30.0376 40.5395 30.5723 40.4662L31.0341 40.5178L34.7461 47.5923C34.9234 47.9295 35.266 48.1219 35.621 48.1219C35.7761 48.1219 35.9331 48.0847 36.0802 48.0073C36.5626 47.752 36.7477 47.152 36.4935 46.6676L28.2003 30.8614L27.045 28.6921C26.6584 27.9741 26.926 27.0737 27.6409 26.6854C28.3293 26.3138 29.1824 26.5468 29.5917 27.2016L36.2127 39.7583C36.3899 40.0944 36.7321 40.2863 37.0861 40.2863C37.2421 40.2863 37.4001 40.2496 37.5472 40.1708C38.0296 39.9149 38.2132 39.3145 37.958 38.8305L31.445 26.478C31.4273 26.3748 31.3929 26.2726 31.3407 26.1753C30.9546 25.4573 31.2232 24.5564 31.9396 24.1681ZM6.09533 23.9744C6.20593 24.0151 6.31998 24.0339 6.43156 24.0339C6.83543 24.0339 7.21412 23.7835 7.35977 23.3804C8.73036 19.5858 11.1901 16.3658 14.4744 14.0686C15.1335 13.6075 15.8331 13.1811 16.553 12.8008C17.0354 12.5459 17.2205 11.9465 16.9663 11.4615C16.713 10.9766 16.1175 10.7912 15.6327 11.0455C14.8417 11.464 14.072 11.9336 13.3457 12.4413C9.72473 14.9735 7.01317 18.5227 5.50384 22.7041C5.31771 23.2193 5.58284 23.788 6.09533 23.9744ZM5.27796 29.323C5.25031 29.323 5.22266 29.322 5.19501 29.3196C4.65142 29.2744 4.24755 28.795 4.29248 28.2491C4.3532 27.5217 4.45294 26.7819 4.5897 26.0505C4.69042 25.513 5.20785 25.156 5.74256 25.2597C6.27875 25.3608 6.63176 25.879 6.53104 26.4174C6.40662 27.0819 6.31528 27.7532 6.26097 28.4132C6.21802 28.9313 5.7865 29.323 5.27796 29.323ZM19.7272 60.4518C19.6828 60.4518 19.6384 60.4488 19.5934 60.4424C16.5901 60.0338 13.7679 59.0163 11.206 57.4193C10.7428 57.1302 10.6002 56.5188 10.888 56.0537C11.1758 55.5876 11.7846 55.4448 12.2477 55.7339C14.5722 57.1832 17.1322 58.106 19.8586 58.4774C20.3992 58.5513 20.7774 59.0506 20.7043 59.593C20.6372 60.0908 20.2135 60.4518 19.7272 60.4518ZM7.19478 55.3297C7.35968 55.4353 7.54335 55.4854 7.72553 55.4854C8.0514 55.4854 8.37034 55.3237 8.55846 55.0272C8.85222 54.5656 8.71694 53.9523 8.25777 53.6582C6.54651 52.5614 5.02484 51.2108 3.7362 49.6439C3.38911 49.221 2.76652 49.1625 2.34586 49.5106C1.9257 49.8591 1.86596 50.4844 2.21354 50.9068C3.634 52.6338 5.31021 54.1218 7.19478 55.3297Z" fill="currentColor"/>
</svg>
