<svg viewBox="0 0 60 60" fill="none" xmlns="http://www.w3.org/2000/svg"><path d="M33.5 15a1.5 1.5 0 1 0 0-3 1.5 1.5 0 0 0 0 3zM26.5 15a1.5 1.5 0 1 0 0-3 1.5 1.5 0 0 0 0 3z" fill="currentColor"/><path fill-rule="evenodd" clip-rule="evenodd" d="M6 35v18a7.008 7.008 0 0 0 7 7h34a7.008 7.008 0 0 0 7-7V35h2a4.024 4.024 0 0 0 4-4.09A3.914 3.914 0 0 0 56.09 27H56v-7a1 1 0 0 0-1-1h-2v-2h-2v2h-7.8a2.985 2.985 0 0 0-2.19-5.02h-.03l-.98.01V7a7.008 7.008 0 0 0-7-7H21a1 1 0 0 0-1 1v13h-1a3.01 3.01 0 0 0-2.985 3.266 3.074 3.074 0 0 0 3.1 2.734H20a8.26 8.26 0 0 0 2.424 5.86L25 28.417V31h-2a10.99 10.99 0 0 0-9 4.7V28a.977.977 0 0 0-.152-.5A.977.977 0 0 0 14 27v-6a.995.995 0 0 0-.02-.2l-1-5A1 1 0 0 0 12 15H4a1 1 0 0 0-1 1v5a1 1 0 0 0 1 1h2.154l.833 5H3.91A3.935 3.935 0 0 0 0 31a4 4 0 0 0 4 4h2zm2 18V37h4v20.9A5.009 5.009 0 0 1 8 53zm29.578-27.163L35 28.414v2.591h2a10.99 10.99 0 0 1 9 4.695V31h-7a1 1 0 0 1-1-1v-4.631c-.136.16-.273.319-.422.468zM48 57.899V37h4v16a5.009 5.009 0 0 1-4 4.899zm8-28.9v1a1 1 0 0 1-1 1h-7v4h4v-1a1 1 0 0 1 1-1h3a2 2 0 0 0 2-2 1.933 1.933 0 0 0-1.91-2H56zm-2 0H40v-8h14v8zM41.01 15.98H41l-1 .01v1.97h1.01a.99.99 0 1 0 0-1.98zM33 2a5.006 5.006 0 0 1 5 5v3.288l-2.086-4.694A1 1 0 0 0 35.002 5H25a1 1 0 0 0-.915.594l-2.085 4.694V2h11zM18.007 17.085c.083.54.558.934 1.104.915h.896v-2h-1a1.012 1.012 0 0 0-1 1.085zM22 20v-4.787L25.65 7h8.7L38 15.213v4.784a6.352 6.352 0 0 1-1.837 4.426L33.587 27h-7.175l-2.572-2.555A6.27 6.27 0 0 1 22 20zm11 9h-6v2.56a4.758 4.758 0 0 0 6 0V29zm-10 4h2.616a6.62 6.62 0 0 0 8.769 0H37a9.01 9.01 0 0 1 9 9v16h-3V41h-2v17H19V41h-2v17h-3V42a9.01 9.01 0 0 1 9-9zM11 17v4a1 1 0 0 1-1 1H8.183l.666 4H12v-4.9l-.819-4.1h-.18zm-6 3v-3h4v3H5zm7 9H3.91A1.912 1.912 0 0 0 2 30.91 2.023 2.023 0 0 0 4 33h3a1 1 0 0 1 1 1v1h4v-6z" fill="currentColor"/><path d="M28 15v5a1 1 0 0 0 1 1h3v-2h-2v-4h-2z" fill="currentColor"/><path fill-rule="evenodd" clip-rule="evenodd" d="M50 25a3 3 0 1 1-6 0 3 3 0 0 1 6 0zm-2 0a1 1 0 1 0-2 0 1 1 0 0 0 2 0z" fill="currentColor"/><path d="M50 22h2v2h-2v-2zM.553 24.106l2-1 .894 1.789-2 1-.894-1.79zM0 18h2v2H0v-2zM.554 13.894l.894-1.788 2 1-.894 1.788-2-1zM30 25.205a5.214 5.214 0 0 0 3.712-1.538l-1.415-1.414a3.228 3.228 0 0 1-2.3.952 3.2 3.2 0 0 1-2.282-.95l-1.418 1.41a5.188 5.188 0 0 0 3.7 1.54H30z" fill="currentColor"/></svg>