<svg viewBox="0 0 42 56" fill="none" xmlns="http://www.w3.org/2000/svg"><path fill-rule="evenodd" clip-rule="evenodd" d="M14.43 43.024l.161 1.003a1257.601 1257.601 0 0 0-1.664 3.161l-.103.2-.034.064a.628.628 0 0 1-.368.344.725.725 0 0 1-.212.04 1.174 1.174 0 0 1-.204-.01 4.184 4.184 0 0 1-.386-.076 15.6 15.6 0 0 1-1.085-.305l-.002-.001-2.12-.688 1.987-3.838c.46-.887.875-1.727 1.174-2.365.15-.32.268-.585.348-.778.04-.097.069-.169.085-.217v-.002c-.018-.215-.143-.454-.36-.645-.236-.208-.503-.291-.707-.269-.223.027-.285.046-.338.076-.056.032-.163.113-.355.386-.395.561-.972 1.658-2.14 3.906a122.894 122.894 0 0 0-1.528 3.045c-.196.406-.352.74-.458.982a6.351 6.351 0 0 0-.116.276l-.002.005c.014.1.059.249.14.409.048.092.1.172.15.234a.698.698 0 0 0 .078.084l.036.015c.052.021.126.05.223.085.192.071.457.164.778.273.64.219 1.489.498 2.392.787h.002c1.86.603 2.737.872 3.238.929.222.025.292-.002.319-.014.048-.022.111-.068.28-.24l.003-.004c.014-.02.08-.11.205-.313.13-.209.296-.492.489-.832.384-.678.865-1.567 1.349-2.508l1.933-3.73h2.375v11.554h-7.964c-3.442 0-5.27.003-6.29.031-1.013.028-1.12.085-1.172.113l-.006.003h-.002v.001a1.122 1.122 0 0 0-.388.38c-.125.191-.171.36-.171.448 0 .088.046.257.171.448.123.188.272.322.388.381h.001a.154.154 0 0 0 .044.014c.049.011.14.025.312.04.348.027.948.048 2.044.062C9.142 55.997 13.22 56 21 56c7.781 0 11.859-.003 14.042-.032 1.095-.014 1.695-.035 2.043-.063.173-.014.264-.028.312-.039.032-.007.04-.01.042-.013h.003v-.001c.116-.059.265-.193.388-.38.124-.191.171-.36.171-.449 0-.088-.046-.256-.171-.447a1.126 1.126 0 0 0-.388-.381l-.001-.001-.006-.003c-.054-.028-.16-.085-1.174-.113-1.02-.028-2.848-.031-6.289-.031h-7.965V42.493h2.376l1.98 3.836v.002c.505.96.995 1.865 1.38 2.547.193.341.357.624.483.828a5.767 5.767 0 0 0 .18.278c.126.112.176.138.213.15.034.012.121.033.36 0 .513-.072 1.393-.34 3.183-.916 1.052-.336 1.89-.62 2.49-.841.3-.111.534-.204.703-.279.136-.06.2-.095.222-.106l.006-.003.002-.001.002-.002c.128-.102.241-.258.31-.432a.721.721 0 0 0 .052-.404l-.003-.007a11.216 11.216 0 0 0-.15-.336 52.36 52.36 0 0 0-.434-.896c-.36-.73-.847-1.692-1.37-2.708l-1.989-3.838v-3.782l2.876 1.85c.867.563 1.326.852 1.628 1.005.257.13.346.136.487.136.224 0 .323-.015.387-.038.047-.016.117-.05.23-.18.269-.303.607-.911 1.279-2.214v-.001c.51-.983.794-1.551.947-1.918.148-.355.136-.441.13-.48v-.002l.001.006-.003-.008c-.008-.02-.029-.073-.08-.175a8.796 8.796 0 0 0-.35-.605 57.936 57.936 0 0 0-1.482-2.223l-2.052-2.97v-2.048c0-.794-.01-1.252-.039-1.55-.027-.276-.068-.37-.113-.452l-.001-.001v-.002c-.057-.103-.196-.25-.39-.373a1.1 1.1 0 0 0-.368-.163l-.005.002c-.05.011-.123.03-.219.055-.19.051-.455.127-.775.221-.64.188-1.49.45-2.4.738l-3.173 1.017-6.512 6.2V17.392l.943-.415.008-.004c.27-.11.753-.385 1.071-.6l.946-.647 1.171.747.004.003c.524.346.945.555 1.367.68.421.126.877.18 1.481.18.605 0 1.06-.054 1.483-.178.423-.126.845-.331 1.369-.672l1.164-.76 1.051.705h.001c1.619 1.096 3.413 1.241 5.153.412 1.32-.626 2.387-1.986 2.666-3.397.052-.3.116-1.559.116-2.79 0-1.293-.03-1.931-.128-2.297-.044-.16-.091-.228-.13-.27-.045-.048-.121-.103-.293-.188-.212-.103-1.574-.644-3.565-1.418-1.97-.767-4.51-1.745-7.03-2.709-2.518-.963-5.014-1.912-6.897-2.62C23.017.8 22.23.507 21.671.302c-.28-.102-.5-.181-.652-.234l-.054-.019-.05.018c-.15.052-.362.129-.635.229-.543.199-1.314.487-2.255.841-1.882.71-4.442 1.686-7.227 2.759-2.78 1.072-5.343 2.07-7.233 2.811A458.392 458.392 0 0 0 .646 7.864l-.174.072a.677.677 0 0 0-.243.173.699.699 0 0 0-.116.286C.026 8.771 0 9.41 0 10.655c0 1.233.063 2.491.115 2.79.28 1.412 1.345 2.771 2.666 3.398 1.74.829 3.535.685 5.155-.412l1.051-.706 1.165.761m2.248 13.95l.095.592-2.782.896h-.001c-1.23.392-2.063.671-2.615.879-.277.104-.47.186-.604.25-.085.042-.13.07-.151.083a3.155 3.155 0 0 0-.135.253c-.095.197-.21.463-.34.781a47.87 47.87 0 0 0-.839 2.277 47.499 47.499 0 0 0-.73 2.299c-.093.326-.164.6-.208.806a2.834 2.834 0 0 0-.044.261c.117.456.695.813 1.2.705h.004a.592.592 0 0 0 .248-.093c.053-.039.135-.12.25-.318.241-.42.526-1.173 1.02-2.609l1.009-2.948 2.754-.877h.002l2.27-.734.286-.093h5.124a163.4 163.4 0 0 0 3.8-.034 29.79 29.79 0 0 0 1.054-.04c.125-.008.218-.016.282-.024l.017-.002.013-.008a5.63 5.63 0 0 0 .232-.16c.198-.142.468-.346.786-.6a33.105 33.105 0 0 0 2.25-1.975l2.937-3.107 1.838-.59.002-.001c.475-.155.855-.261 1.12-.329a9.841 9.841 0 0 1 .46-.104l.023-.003s.035-.004.075-.004c.172 0 .291.069.319.085a.627.627 0 0 1 .204.186c.022.03.043.064.063.097.04.07.087.16.132.27.09.22.177.53.193.906v.002l.031.956 1.752 2.524 2.065 2.968-.565 1.038c-.13.257-.26.478-.392.636a1.105 1.105 0 0 1-.279.25.732.732 0 0 1-.697.04l-.015-.008-.015-.008c-.113-.062-1.216-.768-2.423-1.553-1.246-.798-1.887-1.18-2.3-1.334-.187-.07-.278-.072-.328-.067-.054.006-.13.027-.285.11h-.001l-.001.002c-.206.11-.278.162-.321.211-.033.038-.086.114-.132.334-.102.486-.117 1.366-.117 3.207V39.8l1.61 3.12 1.988 3.837-2.12.688h-.003c-.41.13-.795.238-1.085.306a4.19 4.19 0 0 1-.386.075c-.05.007-.125.015-.204.011a.725.725 0 0 1-.213-.04.63.63 0 0 1-.365-.34l-.003-.005-.024-.048a1382.565 1382.565 0 0 0-1.776-3.377c-.797-1.508-1.243-2.338-1.537-2.817-.275-.448-.365-.498-.402-.515h-.002c-.08-.04-.183-.09-.803-.118-.628-.03-1.697-.036-3.665-.036s-3.038.006-3.666.036c-.62.028-.722.078-.803.117h-.002c-.036.018-.127.069-.401.516-.294.479-.74 1.309-1.538 2.818l-.161-1.003m-1.934-11.996l-.095-.593.095.593zm0 0l.421-.135h7.078V17.392l-.943-.415-.008-.003c-.269-.11-.754-.386-1.071-.602l-.945-.646-1.171.747-.005.003c-.523.346-.944.554-1.367.68-.421.126-.876.18-1.48.18-.605 0-1.061-.053-1.484-.178-.423-.125-.845-.331-1.368-.672M30.44 5.656l9.546 3.684v2.075c0 1.457-.03 1.862-.318 2.466l-.003.005-.003.006c-.707 1.396-2.536 1.954-4.003 1.262-.968-.453-1.491-1.26-1.65-2.355-.059-.403-.138-.63-.225-.77-.075-.122-.175-.21-.364-.296l-.003-.001-.002-.001c-.22-.102-.337-.123-.42-.123-.083 0-.199.021-.42.123h-.002l-.002.002c-.19.085-.29.174-.364.295-.087.141-.166.367-.224.77v.002l-.001.003c-.117.766-.448 1.432-.976 1.91-.531.482-1.23.742-2.01.742-.78 0-1.477-.26-2.01-.742-.527-.478-.858-1.144-.975-1.91v-.005c-.058-.403-.137-.63-.224-.77-.075-.12-.175-.21-.364-.295l-.003-.001-.002-.001c-.22-.102-.337-.123-.42-.123-.083 0-.2.021-.42.123h-.002l-.002.002c-.19.085-.29.174-.364.295-.088.141-.167.367-.225.77v.005c-.117.766-.448 1.432-.976 1.91-.532.482-1.23.742-2.01.742-.78 0-1.478-.26-2.01-.742-.527-.478-.858-1.144-.975-1.91v-.008l-.002-.007a3.027 3.027 0 0 0-.183-.7c-.024-.057-.038-.08-.037-.077-.033-.05-.155-.164-.357-.27-.203-.107-.368-.145-.434-.145s-.232.038-.434.144c-.203.107-.324.22-.358.27v.001c-.002.004-.016.028-.037.078a3.036 3.036 0 0 0-.183.7v.007l-.002.007c-.116.766-.447 1.432-.975 1.91-.532.482-1.23.742-2.01.742-.78 0-1.478-.26-2.01-.742-.528-.478-.859-1.144-.975-1.91v-.005c-.059-.403-.138-.63-.225-.77-.075-.12-.175-.21-.364-.295l-.002-.001-.003-.001c-.22-.102-.337-.123-.42-.123-.082 0-.199.021-.419.123h-.002l-.003.002c-.189.085-.289.174-.364.295-.087.141-.166.367-.224.77-.16 1.094-.682 1.903-1.652 2.356-1.466.692-3.296.133-4.002-1.262l-.003-.005-.002-.007c-.29-.603-.319-1.008-.319-2.465V9.34l9.484-3.67c2.499-.965 4.784-1.846 6.453-2.486.834-.32 1.516-.58 1.994-.76a57.449 57.449 0 0 1 .726-.267l.063-.02.015-.005a.868.868 0 0 1 .074-.017.658.658 0 0 1 .181-.007h.002a.69.69 0 0 1 .12.023l.07.021a45.478 45.478 0 0 1 .734.264c.482.179 1.17.438 2.011.757 1.684.638 3.988 1.519 6.5 2.484z" fill="currentColor"/><path d="M5.983 47.375l.002-.007.001-.003c-.001.007-.003.01-.003.01zM35.13 23.169c.008-.001.009-.002.001 0h-.001zM21.11.002h-.004a.112.112 0 0 0 .01-.002l-.006.002z" fill="currentColor"/></svg>