<svg viewBox="0 0 12 20" fill="none" xmlns="http://www.w3.org/2000/svg"><path d="M5.044 20h1.775a.74.74 0 0 0 .737-.739v-1.709l.369-.098C10.933 16.695 12 14.622 12 13.08c0-2.857-2.458-4.044-4.867-4.832C4.872 7.501 4.15 7.048 4.15 6.378c0-.6.694-1.202 2.247-1.202 1.71 0 2.782.488 3.24.7a.745.745 0 0 0 .304.069.745.745 0 0 0 .669-.424l.703-1.492a.718.718 0 0 0 .024-.562.722.722 0 0 0-.378-.419c-.846-.398-1.765-.655-2.802-.778l-.433-.054V.734A.736.736 0 0 0 6.986 0H5.24a.74.74 0 0 0-.737.734v1.65l-.369.093C1.706 3.093.256 4.654.256 6.65c0 2.63 2.6 3.801 5.151 4.604 2.355.769 2.675 1.434 2.675 1.985 0 .852-1.101 1.473-2.616 1.473-1.288 0-2.674-.33-3.706-.882a.72.72 0 0 0-.585-.05.751.751 0 0 0-.433.4L.064 15.69a.733.733 0 0 0 .31.941c.86.498 2.138.867 3.495 1.02l.437.044v1.566c0 .409.33.739.738.739z" fill="currentColor"/></svg>